<svg id="af3d3c3d-545f-4b55-9afb-18c121e54e61" data-name="Layer 1" xmlns="http://www.w3.org/2000/svg" viewBox="0 0 100 100">
  <defs>
    <style>
      .fb162388-51ca-4580-ac2f-f676ca800d4d {
        fill: #642fcf;
      }
    </style>
  </defs>
  <title>LEFAStoreIcons</title>
  <g>
    <path class="fb162388-51ca-4580-ac2f-f676ca800d4d" d="M91.32,86.65l-5-52A7.28,7.28,0,0,0,79,28H71C70.44,15.38,61.24,5.28,50,5.28S29.56,15.38,29.05,28H21a7.28,7.28,0,0,0-7.27,6.61l-5,52a7.07,7.07,0,0,0,.05,1.95A7.31,7.31,0,0,0,16,94.72h68.1a7.31,7.31,0,0,0,7.22-6.12A7.07,7.07,0,0,0,91.32,86.65ZM50,8.28C59.59,8.28,67.42,17,67.93,28H32.07C32.58,17,40.41,8.28,50,8.28Zm37.28,82a4.61,4.61,0,0,1-3.45,1.44H16.17a4.61,4.61,0,0,1-3.45-1.44A4.27,4.27,0,0,1,11.66,87l5.05-52.09A4.29,4.29,0,0,1,21,31h8V42.87a1.5,1.5,0,0,0,1.5,1.5h0a1.5,1.5,0,0,0,1.5-1.5V31H68V42.87a1.5,1.5,0,0,0,1.5,1.5h0a1.5,1.5,0,0,0,1.5-1.5V31h8a4.29,4.29,0,0,1,4.28,3.9l5,52.09A4.27,4.27,0,0,1,87.28,90.28Z"/>
    <path class="fb162388-51ca-4580-ac2f-f676ca800d4d" d="M50,47.91h0a1.5,1.5,0,0,0-1.5,1.5V59.87H38a1.5,1.5,0,0,0-1.5,1.5h0a1.5,1.5,0,0,0,1.5,1.5H48.5V73.33a1.5,1.5,0,0,0,1.5,1.5h0a1.5,1.5,0,0,0,1.5-1.5V62.87H62a1.5,1.5,0,0,0,1.5-1.5h0a1.5,1.5,0,0,0-1.5-1.5H51.5V49.41A1.5,1.5,0,0,0,50,47.91Z"/>
  </g>
</svg>
