<svg id="b158da74-bd90-49a0-9cb3-e8a2db654fa5" data-name="Layer 1" xmlns="http://www.w3.org/2000/svg" viewBox="0 0 100 100"><defs><style>.a279d659-7da6-45e3-a82b-eff12866f624{fill:#f4b71e;}.a02b7f43-95c5-4c91-a83f-e61248d910b5{fill:#642fcf;}</style></defs><title>LEFAStoreIcons</title><path class="a279d659-7da6-45e3-a82b-eff12866f624" d="M95.16,19.32,80.43,4.59a3.81,3.81,0,0,0-5.39,0L57.62,22,77.74,42.13,95.16,24.71A3.81,3.81,0,0,0,95.16,19.32ZM93,22.59l-15.3,15.3L61.86,22l15.3-15.3a.81.81,0,0,1,1.15,0L93,21.44A.81.81,0,0,1,93,22.59Z"/><path class="a279d659-7da6-45e3-a82b-eff12866f624" d="M77.74,14.23a1.51,1.51,0,0,0-2.12,0L70,19.89A1.5,1.5,0,1,0,72.08,22l5.66-5.65A1.52,1.52,0,0,0,77.74,14.23Z"/><path class="a279d659-7da6-45e3-a82b-eff12866f624" d="M83.4,22l-5.66,5.66a1.5,1.5,0,0,0,2.12,2.12l5.66-5.66A1.5,1.5,0,1,0,83.4,22Z"/><path class="a02b7f43-95c5-4c91-a83f-e61248d910b5" d="M82.23,42.29,58,18a3.51,3.51,0,0,0-5,0L4.75,66.29a3.49,3.49,0,0,0,0,4.95L29,95.5a3.49,3.49,0,0,0,4.95,0L82.23,47.24A3.51,3.51,0,0,0,82.23,42.29ZM80,45,31.75,93.29a.37.37,0,0,1-.52,0L7,69a.37.37,0,0,1,0-.52L55.23,20.24a.36.36,0,0,1,.26-.11.4.4,0,0,1,.26.11L80,44.5A.37.37,0,0,1,80,45Z"/><rect class="a02b7f43-95c5-4c91-a83f-e61248d910b5" x="17.71" y="61.26" width="15.56" height="3" rx="1.5" transform="translate(-36.91 36.41) rotate(-45)"/><rect class="a02b7f43-95c5-4c91-a83f-e61248d910b5" x="21.36" y="63.01" width="24.75" height="3" rx="1.5" transform="translate(-35.74 42.75) rotate(-45)"/><rect class="a02b7f43-95c5-4c91-a83f-e61248d910b5" x="24.77" y="62.76" width="42.43" height="3" rx="1.5" transform="translate(-31.97 51.34) rotate(-45)"/></svg>