<svg id="aebcc417-5df5-4e78-8be0-4efac507dec5" data-name="Layer 1" xmlns="http://www.w3.org/2000/svg" viewBox="0 0 100 100"><defs><style>.f65ffabc-e2ae-4607-838c-29e5e65333a1{fill:#fff;}.af445252-6022-431f-9c4f-b02ae0a75bd4{fill:#f4b71e;}</style></defs><title>LEFAWalletIcons</title><path class="f65ffabc-e2ae-4607-838c-29e5e65333a1" d="M95.42,50A25.39,25.39,0,0,0,73.24,24.84v-12A2.82,2.82,0,0,0,70.42,10H28.06a2.82,2.82,0,0,0-2.82,2.82V87.18A2.82,2.82,0,0,0,28.06,90H70.42a2.82,2.82,0,0,0,2.82-2.82v-12A25.39,25.39,0,0,0,95.42,50ZM44.74,14.5h9a1.5,1.5,0,1,1,0,3h-9a1.5,1.5,0,0,1,0-3ZM70.24,78h-42V22h42ZM91.56,61.44H81.79A42.13,42.13,0,0,0,83.31,50.5h11.1A24.32,24.32,0,0,1,91.56,61.44ZM82.31,50.5a41.1,41.1,0,0,1-1.54,10.94H73.24V50.5Zm-9.07-1V37.12h7.08a40.4,40.4,0,0,1,2,12.38Zm21.17,0H83.31a41.34,41.34,0,0,0-2-12.38h9.38A24.34,24.34,0,0,1,94.41,49.5ZM90.07,36.12H81c-1.76-4.77-4.38-8.43-7.48-10.24A24.41,24.41,0,0,1,90.07,36.12ZM80,36.12H73.24V26.86C76,28.53,78.34,31.82,80,36.12ZM73.24,62.44h7.22c-1.61,5-4.17,8.85-7.22,10.7Zm.27,11.68c3.41-2,6.25-6.2,8-11.68H91A24.39,24.39,0,0,1,73.51,74.12Z"/><path class="af445252-6022-431f-9c4f-b02ae0a75bd4" d="M53,56.92a4.9,4.9,0,0,0-.19-1.45,3.22,3.22,0,0,0-.64-1.14A5,5,0,0,0,51,53.39a11.06,11.06,0,0,0-1.72-.84A29.37,29.37,0,0,1,46.1,51a10.52,10.52,0,0,1-2.44-1.83,7.38,7.38,0,0,1-1.58-2.44A9.78,9.78,0,0,1,42,40.41,7.26,7.26,0,0,1,43.44,38a7.51,7.51,0,0,1,2.22-1.66,8.81,8.81,0,0,1,2.9-.81v-4.2h2.85v4.26a8,8,0,0,1,2.78,1,7.18,7.18,0,0,1,2.12,1.88,8.44,8.44,0,0,1,1.34,2.74,12.14,12.14,0,0,1,.47,3.54H53a5.78,5.78,0,0,0-.88-3.52A2.8,2.8,0,0,0,49.73,40a3.43,3.43,0,0,0-1.38.26,2.66,2.66,0,0,0-1,.73,2.88,2.88,0,0,0-.55,1.09,4.89,4.89,0,0,0-.18,1.35,4.46,4.46,0,0,0,.18,1.31,2.75,2.75,0,0,0,.61,1.09,4.7,4.7,0,0,0,1.16.94,15.38,15.38,0,0,0,1.79.92c1.15.51,2.2,1,3.14,1.56A10.55,10.55,0,0,1,56,51.15a7.38,7.38,0,0,1,1.58,2.44,8.65,8.65,0,0,1,.56,3.29,8.88,8.88,0,0,1-.51,3.1,6.83,6.83,0,0,1-1.43,2.37A7.13,7.13,0,0,1,54,64a9,9,0,0,1-2.92.78v3.91H48.2V64.76A10.17,10.17,0,0,1,45.34,64a7.35,7.35,0,0,1-2.45-1.7,8.23,8.23,0,0,1-1.71-2.79,11.3,11.3,0,0,1-.64-4h5.15A7,7,0,0,0,46,57.79a3.93,3.93,0,0,0,.88,1.49,3,3,0,0,0,1.26.79,4.59,4.59,0,0,0,1.43.22A3.9,3.9,0,0,0,51.06,60a3,3,0,0,0,1.06-.71,2.88,2.88,0,0,0,.64-1.07A4.14,4.14,0,0,0,53,56.92Z"/></svg>