<svg id="fea46c8e-8f75-4c1d-bfbe-199473eea750" data-name="Layer 1" xmlns="http://www.w3.org/2000/svg" viewBox="0 0 100 100"><defs><style>.a524867d-592f-4c4e-90ad-463989c9ee0b{fill:#642fcf;}.a892bb47-2168-4a82-b44e-909bbe678e61{fill:#f4b71e;}</style></defs><title>LEFAStoreIcons</title><path class="a524867d-592f-4c4e-90ad-463989c9ee0b" d="M52.94,40.66a4.26,4.26,0,0,0-6.67-3.5L26,16.84l-1,1a33.61,33.61,0,0,0,0,47.49,33.19,33.19,0,0,0,5.74,4.6,10,10,0,0,0-7.09,9.51v1.42h8.52V94.58H35V80.86h8.52V79.44a9.83,9.83,0,0,0-1.33-4.93,34.38,34.38,0,0,0,6.55.64,33.44,33.44,0,0,0,23.74-9.82l1-1L52.19,43.07A4.29,4.29,0,0,0,52.94,40.66Zm-3.26-1a1.4,1.4,0,0,1,.42,1,1.36,1.36,0,0,1,0,.29L48.42,39.3A1.45,1.45,0,0,1,49.68,39.66ZM26.59,78A7.1,7.1,0,0,1,40.5,78ZM69.41,64.31A30.74,30.74,0,0,1,26,20.88Z"/><path class="a892bb47-2168-4a82-b44e-909bbe678e61" d="M52.87,32.29a9,9,0,0,1,3.11,2,8.92,8.92,0,0,1,2,3.11,1.39,1.39,0,0,0,1.3.88,1.43,1.43,0,0,0,1.33-1.95,11.72,11.72,0,0,0-6.69-6.69A1.42,1.42,0,0,0,52,31h0A1.39,1.39,0,0,0,52.87,32.29Z"/><path class="a892bb47-2168-4a82-b44e-909bbe678e61" d="M53.13,20.65a20.19,20.19,0,0,1,16.5,16.5A1.42,1.42,0,0,0,71,38.3a1.44,1.44,0,0,0,1.4-1.68A23.11,23.11,0,0,0,53.67,17.86,1.42,1.42,0,0,0,52,19.26h0A1.4,1.4,0,0,0,53.13,20.65Z"/><path class="a892bb47-2168-4a82-b44e-909bbe678e61" d="M74.71,15.58A35.31,35.31,0,0,0,53.53,5.43,1.41,1.41,0,0,0,52,6.85h0a1.43,1.43,0,0,0,1.29,1.41A32.53,32.53,0,0,1,82,37a1.43,1.43,0,0,0,1.41,1.29,1.41,1.41,0,0,0,1.41-1.55A35.21,35.21,0,0,0,74.71,15.58Z"/></svg>