<svg id="b6a3f0f0-dbd4-40c9-97b3-351c09078557" data-name="Layer 1" xmlns="http://www.w3.org/2000/svg" viewBox="0 0 100 100"><defs><style>.a0c3ea24-dfdd-4f92-8b07-6095bed7e099{fill:#f4b71e;}.b9bf0aa8-551f-41af-a72a-fe8b11d3eae6{fill:#642fcf;}</style></defs><title>LEFAStoreIcons</title><rect class="a0c3ea24-dfdd-4f92-8b07-6095bed7e099" x="31.39" y="48.38" width="37.22" height="3.1"/><rect class="a0c3ea24-dfdd-4f92-8b07-6095bed7e099" x="31.39" y="40.45" width="37.22" height="3.1"/><path class="b9bf0aa8-551f-41af-a72a-fe8b11d3eae6" d="M71.87,21.57H64V5a1.55,1.55,0,0,0-3.1,0V21.57H39.14V5A1.55,1.55,0,1,0,36,5V21.57H28.13A1.39,1.39,0,0,0,26.74,23V34.64A1.39,1.39,0,0,0,28.13,36h1.71V47.93A20.18,20.18,0,0,0,48.45,68V96.53h3.1V68A20.18,20.18,0,0,0,70.16,47.93V36h1.71a1.39,1.39,0,0,0,1.39-1.4V23A1.39,1.39,0,0,0,71.87,21.57ZM67.06,47.93a17.06,17.06,0,0,1-34.12,0V36H67.06Zm3.1-15H29.84V24.67H70.16Z"/></svg>