<svg id="a82b8459-252e-46f7-ab1b-b1a86da9e461" data-name="Layer 1" xmlns="http://www.w3.org/2000/svg" viewBox="0 0 100 100">
  <defs>
    <style>
      .bdb54ede-bb36-4166-afa3-b86d71ae1c75 {
        fill: #642fcf;
      }
    </style>
  </defs>
  <title>LEFAStoreIcons</title>
  <path class="bdb54ede-bb36-4166-afa3-b86d71ae1c75" d="M81.6,8.31,53.67,53.86a6.64,6.64,0,0,0-.93,3.42V87.8l-5.89,3.69V56.21a6.64,6.64,0,0,0-1-3.45L18.4,8.31H81.6m.52-3H17.88c-1.81,0-2.83,2.54-1.74,4.3L44,54.58a3.12,3.12,0,0,1,.45,1.63V92a2.47,2.47,0,0,0,2.18,2.68,1.82,1.82,0,0,0,1-.29l6.42-4A2.81,2.81,0,0,0,55.18,88V57.28a3.13,3.13,0,0,1,.43-1.61L83.86,9.6c1.08-1.77.06-4.29-1.74-4.29Z"/>
</svg>
