<svg id="a4954dea-7872-4645-b0d6-7ef35ce03a74" data-name="Layer 1" xmlns="http://www.w3.org/2000/svg" viewBox="0 0 100 100"><defs><style>.a0f07faa-c77f-4f4a-802c-217ad286d4dc{fill:#642fcf;}.fc3188c8-f4c8-418a-8d65-99eb4fc5bae9{fill:#f4b71e;}</style></defs><title>LEFAStoreIcons</title><path class="a0f07faa-c77f-4f4a-802c-217ad286d4dc" d="M94.46,70.84H91V19.78a4.52,4.52,0,0,0-4.51-4.51H13.56a4.52,4.52,0,0,0-4.51,4.51V70.84H5.54a3.61,3.61,0,0,0-3.61,3.6A10.3,10.3,0,0,0,12.21,84.73H87.79A10.3,10.3,0,0,0,98.07,74.44,3.61,3.61,0,0,0,94.46,70.84ZM11.65,19.78a1.92,1.92,0,0,1,1.91-1.91H86.44a1.92,1.92,0,0,1,1.91,1.91V70.84h-2.6V21.18H14.25V70.84h-2.6Zm71.5,51.06H16.85V23.78h66.3Zm4.64,11.29H12.21a7.69,7.69,0,0,1-7.68-7.69,1,1,0,0,1,1-1H94.46a1,1,0,0,1,1,1A7.69,7.69,0,0,1,87.79,82.13Z"/><rect class="fc3188c8-f4c8-418a-8d65-99eb4fc5bae9" x="41.85" y="76.48" width="16.3" height="2.6" rx="1.3"/></svg>