<svg id="e92af6c1-e929-46ee-bcd1-d4eace4b152a" data-name="Layer 1" xmlns="http://www.w3.org/2000/svg" viewBox="0 0 100 100"><defs><style>.aa058404-43be-41dd-a05f-c2433ef04d89{fill:#f4b71e;}.a66dc1e3-e62b-47a6-97b3-7f8da0767d74{fill:#642fcf;}</style></defs><title>LEFAStoreIcons</title><rect class="aa058404-43be-41dd-a05f-c2433ef04d89" x="14.61" y="43.28" width="3" height="15.91" transform="translate(-37.6 50.5) rotate(-71.76)"/><rect class="aa058404-43be-41dd-a05f-c2433ef04d89" x="12.65" y="48.28" width="3" height="16.44" transform="translate(-43.81 50.78) rotate(-70.31)"/><rect class="aa058404-43be-41dd-a05f-c2433ef04d89" x="76.2" y="49.74" width="15.91" height="3" transform="translate(-11.81 28.92) rotate(-18.24)"/><rect class="aa058404-43be-41dd-a05f-c2433ef04d89" x="77.9" y="55" width="16.44" height="3" transform="translate(-14 32.32) rotate(-19.69)"/><circle class="aa058404-43be-41dd-a05f-c2433ef04d89" cx="57.15" cy="35.35" r="2.03"/><circle class="aa058404-43be-41dd-a05f-c2433ef04d89" cx="57.15" cy="42.16" r="2.03"/><path class="a66dc1e3-e62b-47a6-97b3-7f8da0767d74" d="M84.7,22.66c-1.77-5.31-5.89-8.31-11.61-8.48a12.54,12.54,0,0,1-4.69-2.12,12.4,12.4,0,0,1-2.77-2.83,5,5,0,0,0-3-2A62.09,62.09,0,0,0,49.92,5.92h-.11A61.22,61.22,0,0,0,37.37,7.2a4.87,4.87,0,0,0-3.18,2.27,10.19,10.19,0,0,1-2.67,2.88A10.08,10.08,0,0,1,27,14.18c-5.75.15-9.88,3.16-11.66,8.48L2.52,60.28,21,64.91l3.9-9.5,6,38.67H69.07l6-38.67,3.9,9.5,18.5-4.63ZM36.74,11a1.9,1.9,0,0,1,1.24-.9,59,59,0,0,1,24,0,1.93,1.93,0,0,1,1.19.8,15.53,15.53,0,0,0,3.45,3.51l.34.23L50,24.64,33.12,14.89l.17-.11A13,13,0,0,0,36.74,11Zm37,33.27L66.5,91.08h-33L26.23,44.31l-7,17.06L6.41,58.16,18.15,23.61c1.39-4.18,4.42-6.35,9-6.43l.16,0A13,13,0,0,0,30,16.52L48.49,27.24,48.37,47h3l.12-19.81L70.06,16.37c.38.16.77.29,1.16.42l0,.35,1.69,0c4.57.08,7.6,2.25,9,6.43L93.59,58.16,80.77,61.37Z"/></svg>