<svg height="480pt" viewBox="-72 0 480 480" width="480pt" xmlns="http://www.w3.org/2000/svg"><path d="m328 40v400c0 17.671875-14.328125 32-32 32h-256c-17.671875 0-32-14.328125-32-32v-400c0-17.671875 14.328125-32 32-32h256c17.671875 0 32 14.328125 32 32zm-48 336v-304c-.027344-8.824219-7.175781-15.972656-16-16h-192c-8.824219.027344-15.972656 7.175781-16 16v304c.027344 8.824219 7.175781 15.972656 16 16h192c8.824219-.027344 15.972656-7.175781 16-16zm-96 56c0-8.835938-7.164062-16-16-16s-16 7.164062-16 16 7.164062 16 16 16c8.824219-.027344 15.972656-7.175781 16-16zm0 0" fill="#898890"/><path d="m72 56h192c8.835938 0 16 7.164062 16 16v304c0 8.835938-7.164062 16-16 16h-192c-8.835938 0-16-7.164062-16-16v-304c0-8.835938 7.164062-16 16-16zm0 0" fill="#00d7df"/><path d="m184 432c0 8.835938-7.164062 16-16 16s-16-7.164062-16-16 7.164062-16 16-16 16 7.164062 16 16zm0 0" fill="#ffda44"/><path d="m296 0h-256c-22.082031.0273438-39.9726562 17.917969-40 40v400c.0273438 22.082031 17.917969 39.972656 40 40h256c22.082031-.027344 39.972656-17.917969 40-40v-400c-.027344-22.082031-17.917969-39.9726562-40-40zm24 440c0 13.253906-10.746094 24-24 24h-256c-13.253906 0-24-10.746094-24-24v-400c0-13.253906 10.746094-24 24-24h256c13.253906 0 24 10.746094 24 24zm0 0"/><path d="m264 48h-192c-13.253906 0-24 10.746094-24 24v304c0 13.253906 10.746094 24 24 24h192c13.253906 0 24-10.746094 24-24v-304c0-13.253906-10.746094-24-24-24zm8 328c0 4.417969-3.582031 8-8 8h-192c-4.417969 0-8-3.582031-8-8v-304c0-4.417969 3.582031-8 8-8h192c4.417969 0 8 3.582031 8 8zm0 0"/><path d="m168 408c-13.253906 0-24 10.746094-24 24s10.746094 24 24 24 24-10.746094 24-24-10.746094-24-24-24zm0 32c-4.417969 0-8-3.582031-8-8s3.582031-8 8-8 8 3.582031 8 8-3.582031 8-8 8zm0 0"/><path d="m168 136c22.082031.027344 39.972656 17.917969 40 40h16c-.03125-27.8125-20.472656-51.386719-48-55.359375v-16.640625h-16v16.640625c-28.871094 4.394531-49.515625 30.242187-47.425781 59.375 2.09375 29.128906 26.222656 51.757813 55.425781 51.984375 22.089844 0 40 17.910156 40 40s-17.910156 40-40 40-40-17.910156-40-40h-16c.03125 27.8125 20.472656 51.386719 48 55.359375v16.640625h16v-16.640625c28.871094-4.394531 49.515625-30.242187 47.425781-59.375-2.09375-29.128906-26.222656-51.757813-55.425781-51.984375-22.089844 0-40-17.910156-40-40s17.910156-40 40-40zm0 0"/></svg>