<svg height="478pt" viewBox="-23 0 478 478.42218" width="478pt" xmlns="http://www.w3.org/2000/svg"><path d="m304.210938 134.980469v15.441406h-176v-32h176zm0 0" fill="#ffda44"/><g fill="#898890"><path d="m311.089844 37.140625c12.5625 12.5625 2.402344 42.882813-22.558594 67.921875-4.886719 4.902344-10.183594 9.371094-15.839844 13.359375h-112.960937c-5.65625-3.988281-10.953125-8.457031-15.839844-13.359375-24.960937-25.039062-35.121094-55.359375-22.558594-67.921875 7.4375-7.4375 21.277344-6.796875 36.558594.160156 2-15.199219 8.242187-26.160156 17.761719-28.71875 13.597656-3.601562 29.917968 10.878907 40.558594 34.238281 10.640624-23.359374 26.960937-37.839843 40.558593-34.238281 9.523438 2.558594 15.761719 13.519531 17.761719 28.71875 15.28125-6.957031 29.121094-7.597656 36.558594-.160156zm0 0"/><path d="m304.210938 134.980469c70.878906 28 120 88.882812 120 159.441406 0 97.199219-93.121094 176-208 176-114.878907 0-208-78.800781-208-176 0-70.558594 49.121093-131.441406 120-159.441406v15.441406h176zm72 175.441406c0-44.058594-35.621094-79.824219-79.679688-80h-.320312c-25.199219 0-48.921876 11.890625-64 32.082031v-32.082031c-.027344-8.824219-7.175782-15.972656-16-16h-112c-8.824219.027344-15.972657 7.175781-16 16v144c.027343 8.824219 7.175781 15.972656 16 16h112c8.824218-.027344 15.972656-7.175781 16-16v-16.078125c14.96875 20.023438 38.441406 31.894531 63.441406 32.078125h.558594c44.183593 0 80-35.816406 80-80zm0 0"/><path d="m112.210938 334.421875h32v32h-32zm0 0"/><path d="m176.210938 334.421875h32v32h-32zm0 0"/><path d="m176.210938 270.421875h32v32h-32zm0 0"/><path d="m112.210938 270.421875h32v32h-32zm0 0"/></g><path d="m232.210938 358.34375v16.078125c-.027344 8.824219-7.175782 15.972656-16 16h-112c-8.824219-.027344-15.972657-7.175781-16-16v-128h144zm-24 8.078125v-32h-32v32zm0-64v-32h-32v32zm-64 64v-32h-32v32zm0-64v-32h-32v32zm0 0" fill="#00d7df"/><path d="m232.210938 230.421875v16h-144v-16c.027343-8.824219 7.175781-15.972656 16-16h112c8.824218.027344 15.972656 7.175781 16 16zm0 0" fill="#00d7df"/><path d="m296.210938 262.421875v-16l.320312-16c44.183594.089844 79.929688 35.976563 79.839844 80.160156-.089844 44.183594-35.976563 79.929688-80.160156 79.839844h-.558594l.558594-16v-16c13.253906 0 24-10.746094 24-24s-10.746094-24-24-24c-13.253907 0-24-10.746094-24-24s10.746093-24 24-24zm0 0" fill="#ffda44"/><path d="m296.210938 358.421875v16l-.558594 16c-25-.183594-48.472656-12.054687-63.441406-32.078125v-95.839844c15.078124-20.191406 38.800781-32.082031 64-32.082031h.320312l-.320312 16v16c-13.253907 0-24 10.746094-24 24s10.746093 24 24 24c13.253906 0 24 10.746094 24 24s-10.746094 24-24 24zm0 0" fill="#ffda44"/><path d="m312.210938 129.742188v-11.320313c0-4.417969-3.582032-8-8-8h-9.742188c28.742188-28.992187 38.335938-62.871094 22.277344-78.9375-8.101563-8.09375-21.015625-9.796875-36.253906-5.039063-2.085938-11.8125-10.363282-21.59375-21.671876-25.597656-14.464843-3.832031-30.304687 5.847656-42.609374 25.152344-12.296876-19.296875-28.136719-29-42.640626-25.179688-11.296874 4.015626-19.5625 13.792969-21.640624 25.601563-15.253907-4.800781-28.160157-3.0625-36.253907 5.039063-16.058593 16.066406-6.464843 49.9375 22.28125 78.9375h-9.746093c-4.417969 0-8 3.582031-8 8v11.320312c-73.046876 30.910156-120 94.960938-120 164.703125 0 101.464844 96.894531 184 216 184 119.105468 0 216-82.535156 216-184 0-69.742187-46.953126-133.792969-120-164.679687zm-162.65625-30.328126c-22.625-22.695312-30.566407-48.609374-22.566407-56.617187 4.558594-4.558594 15.136719-3.878906 27.589844 1.792969 2.308594 1.046875 4.976563.941406 7.191406-.289063 2.21875-1.230469 3.71875-3.4375 4.050781-5.949219 1.597657-12.050781 6.152344-20.496093 11.878907-22.042968 7.566406-2.023438 21.175781 7.746094 31.199219 29.824218 1.300781 2.855469 4.144531 4.683594 7.28125 4.683594 3.132812 0 5.980468-1.828125 7.28125-4.683594 10.0625-22.09375 23.621093-31.871093 31.199218-29.832031 5.75 1.554688 10.320313 10 11.902344 22.050781.332031 2.511719 1.832031 4.71875 4.050781 5.949219 2.214844 1.230469 4.882813 1.335938 7.191407.289063 12.4375-5.671875 23.015624-6.398438 27.589843-1.792969 8 8 .054688 33.921875-22.558593 56.609375-4 3.992188-8.296876 7.675781-12.855469 11.015625h-107.539063c-4.566406-3.335937-8.875-7.015625-12.886718-11.007813zm-13.34375 27.007813h160v16h-160zm80 336c-110.28125 0-200-75.367187-200-168 0-61.289063 40.464843-117.976563 104-147.265625v3.265625c0 4.417969 3.582031 8 8 8h176c4.417968 0 8-3.582031 8-8v-3.265625c63.535156 29.289062 104 85.976562 104 147.265625 0 92.632813-89.71875 168-200 168zm0 0"/><path d="m296.210938 222.421875c-20.445313.058594-40.238282 7.210937-56 20.230469v-12.230469c0-13.253906-10.746094-24-24-24h-112c-13.253907 0-24 10.746094-24 24v144c0 13.253906 10.746093 24 24 24h112c11.867187-.046875 21.917968-8.761719 23.648437-20.503906 29.820313 24.945312 72.472656 27.367187 104.925781 5.957031s47.007813-61.574219 35.808594-98.804688c-11.203125-37.230468-45.503906-62.699218-84.382812-62.648437zm-192 0h112c4.417968 0 8 3.582031 8 8v8h-128v-8c0-4.417969 3.582031-8 8-8zm112 160h-112c-4.417969 0-8-3.582031-8-8v-120h128v120c0 4.417969-3.582032 8-8 8zm80 0c-21.78125-.097656-42.355469-10.015625-56-26.992187v-90.015626c21.011718-26.136718 57.296874-34.285156 87.464843-19.648437 30.171875 14.636719 46.226563 48.183594 38.703125 80.863281-7.527344 32.679688-36.632812 55.824219-70.167968 55.792969zm0 0"/><path d="m296.210938 270.421875c8.835937 0 16 7.164063 16 16h16c-.054688-14.546875-9.914063-27.226563-24-30.863281v-9.136719h-16v9.136719c-15.585938 4.011718-25.75 18.992187-23.71875 34.960937 2.03125 15.964844 15.625 27.921875 31.71875 27.902344 8.835937 0 16 7.164063 16 16s-7.164063 16-16 16c-8.835938 0-16-7.164063-16-16h-16c.054687 14.546875 9.914062 27.226563 24 30.863281v9.136719h16v-9.136719c15.585937-4.011718 25.753906-18.992187 23.71875-34.957031-2.03125-15.96875-15.625-27.925781-31.71875-27.90625-8.835938 0-16-7.164063-16-16s7.164062-16 16-16zm0 0"/><path d="m144.210938 262.421875h-32c-4.417969 0-8 3.582031-8 8v32c0 4.417969 3.582031 8 8 8h32c4.417968 0 8-3.582031 8-8v-32c0-4.417969-3.582032-8-8-8zm-8 32h-16v-16h16zm0 0"/><path d="m208.210938 262.421875h-32c-4.417969 0-8 3.582031-8 8v32c0 4.417969 3.582031 8 8 8h32c4.417968 0 8-3.582031 8-8v-32c0-4.417969-3.582032-8-8-8zm-8 32h-16v-16h16zm0 0"/><path d="m144.210938 326.421875h-32c-4.417969 0-8 3.582031-8 8v32c0 4.417969 3.582031 8 8 8h32c4.417968 0 8-3.582031 8-8v-32c0-4.417969-3.582032-8-8-8zm-8 32h-16v-16h16zm0 0"/><path d="m208.210938 326.421875h-32c-4.417969 0-8 3.582031-8 8v32c0 4.417969 3.582031 8 8 8h32c4.417968 0 8-3.582031 8-8v-32c0-4.417969-3.582032-8-8-8zm-8 32h-16v-16h16zm0 0"/></svg>