<svg id="a355b7b0-1728-4619-8b5f-985e627eb446" data-name="Layer 1" xmlns="http://www.w3.org/2000/svg" viewBox="0 0 100 100"><defs><style>.e7eb54c6-2c1f-4e09-9cca-9b5a9dddeb2c{fill:#642fcf;}.b63fa1ea-0c04-4262-800e-fc0b5dde500d{fill:#f4b71e;}</style></defs><title>LEFAStoreIcons</title><path class="e7eb54c6-2c1f-4e09-9cca-9b5a9dddeb2c" d="M17.34,6.08,16.4,93.49a1.73,1.73,0,0,0,3,1.24l8.56-8.55L37.73,96a1.73,1.73,0,0,0,2.45,0L51,85.22l9.33,9.33a1.73,1.73,0,0,0,2.45,0l9.34-9.33,8.56,8.56a1.73,1.73,0,0,0,3-1.23V6.1A2.61,2.61,0,0,0,81,3.5H20A2.61,2.61,0,0,0,17.34,6.08ZM80.72,89.79l-8.64-8.64L61.52,91.71,51,81.15l-12,12-11-11-8.61,8.6.91-84.33h60.5Z"/><path class="b63fa1ea-0c04-4262-800e-fc0b5dde500d" d="M28.88,30.38H49a1.44,1.44,0,0,0,0-2.88H28.88a1.44,1.44,0,0,0,0,2.88Z"/><path class="b63fa1ea-0c04-4262-800e-fc0b5dde500d" d="M58.64,30.38h9c1.06,0,1.92-.64,1.92-1.44s-.86-1.44-1.92-1.44h-9c-1.06,0-1.92.65-1.92,1.44S57.58,30.38,58.64,30.38Z"/><path class="b63fa1ea-0c04-4262-800e-fc0b5dde500d" d="M29.36,43.82a1.44,1.44,0,1,0,0,2.88H49.52a1.44,1.44,0,0,0,0-2.88Z"/><path class="b63fa1ea-0c04-4262-800e-fc0b5dde500d" d="M59.28,43.82c-1.06,0-1.92.65-1.92,1.44s.86,1.44,1.92,1.44h9c1.06,0,1.92-.64,1.92-1.44s-.86-1.44-1.92-1.44Z"/><path class="b63fa1ea-0c04-4262-800e-fc0b5dde500d" d="M49.52,57.26H29.36a1.44,1.44,0,1,0,0,2.88H49.52a1.44,1.44,0,0,0,0-2.88Z"/><path class="b63fa1ea-0c04-4262-800e-fc0b5dde500d" d="M68.24,57.26h-9c-1.06,0-1.92.65-1.92,1.44s.86,1.44,1.92,1.44h9c1.06,0,1.92-.64,1.92-1.44S69.3,57.26,68.24,57.26Z"/></svg>