<svg id="f4a75b3c-b645-447c-9924-a5481ab4e928" data-name="Layer 1" xmlns="http://www.w3.org/2000/svg" viewBox="0 0 100 100"><defs><style>.e8f1c4fa-4525-4459-abbf-08c07c8ce914{fill:#642fcf;}.a3b69bb3-a48a-48d3-9997-5446f65a082c{fill:#f4b71e;}</style></defs><title>LEFAStoreIcons</title><path class="e8f1c4fa-4525-4459-abbf-08c07c8ce914" d="M68.43,3.5H31.57a8.08,8.08,0,0,0-8.07,8.07V88.43a8.08,8.08,0,0,0,8.07,8.07H68.43a8.08,8.08,0,0,0,8.07-8.07V11.57A8.08,8.08,0,0,0,68.43,3.5Zm-36.86,3H68.43a5.08,5.08,0,0,1,5.07,5.07v6.92h-47V11.57A5.08,5.08,0,0,1,31.57,6.5Zm41.93,15V81.3h-47V21.49Zm-5.07,72H31.57a5.08,5.08,0,0,1-5.07-5.07V84.3h47v4.13A5.08,5.08,0,0,1,68.43,93.5Z"/><rect class="a3b69bb3-a48a-48d3-9997-5446f65a082c" x="44" y="87.5" width="13" height="3" rx="1.5"/><circle class="a3b69bb3-a48a-48d3-9997-5446f65a082c" cx="66.5" cy="12.5" r="2.12"/></svg>