<svg id="abed4579-4f1e-44d2-8d6b-eb066c8ed7da" data-name="Layer 1" xmlns="http://www.w3.org/2000/svg" viewBox="0 0 300 300"><defs><style>.bddee392-695b-4c5f-8ece-da9fb2e20d54{fill:#fff;}</style></defs><title>LEFA-QR-Resources</title><path class="bddee392-695b-4c5f-8ece-da9fb2e20d54" d="M22.46,108.06H108V22.33H22.46ZM35.28,35.44H95.17V95H35.28Z"/><rect class="bddee392-695b-4c5f-8ece-da9fb2e20d54" x="46.98" y="46.57" width="36.5" height="37.25"/><path class="bddee392-695b-4c5f-8ece-da9fb2e20d54" d="M22.46,277.63H108V191.91H22.46ZM35.28,205H95.17v59.52H35.28Z"/><rect class="bddee392-695b-4c5f-8ece-da9fb2e20d54" x="46.98" y="216.14" width="36.5" height="37.25"/><path class="bddee392-695b-4c5f-8ece-da9fb2e20d54" d="M277.57,22.33H192v85.73h85.54ZM264.74,95H204.85V35.44h59.89Z"/><rect class="bddee392-695b-4c5f-8ece-da9fb2e20d54" x="216.55" y="46.57" width="36.5" height="37.25"/><polygon class="bddee392-695b-4c5f-8ece-da9fb2e20d54" points="47.14 156.06 59.12 156.06 59.12 120.13 22.43 120.13 22.43 131.36 35.16 131.36 35.16 156.06 22.43 156.06 22.43 180.77 71.47 180.77 71.47 168.42 47.14 168.42 47.14 156.06"/><path class="bddee392-695b-4c5f-8ece-da9fb2e20d54" d="M156.86,108.34V84h24.71V59.3H169.21V48.45h12.36V22.62l-61,.18h-.19V47.51H132V72.59H120.36l.19,46.23V143.9H83.6V131.55l-12.13-.19v37.06l11.75-.19v-12h25v12H83.6V181h37v10.85h12.32V168.23h12.71V155.88h-25v-12h35.93V120.32h11.6v-12Zm-.19-24.52H144.32v24.33h-12V72.59h12V59.49h12.35Zm0-36.68H144.32V35.53h12.35Z"/><rect class="bddee392-695b-4c5f-8ece-da9fb2e20d54" x="167.68" y="95.05" width="13.48" height="13.1"/><rect class="bddee392-695b-4c5f-8ece-da9fb2e20d54" x="83.6" y="120.32" width="24.64" height="11.23"/><rect class="bddee392-695b-4c5f-8ece-da9fb2e20d54" x="228.51" y="156.14" width="13.28" height="12.23"/><path class="bddee392-695b-4c5f-8ece-da9fb2e20d54" d="M216.32,156.14h12.19V120.32H168.09l.25,35.62h12.81V168.3H169v12.29h-12.3v11.22h12.17V205H181V192.64h11.15V205h13.19v23h12v24.24h12.25v25.43H240.5V241.2h-12V216.45h12.14v-23.8H228.51V168.38H216.32Zm.32,25V204H205.33V191.91H192.17V156.06h13.38l-.25-12H192.17V131.55h24.15v24.51H205.55v25.11Z"/><polygon class="bddee392-695b-4c5f-8ece-da9fb2e20d54" points="193.13 215.96 181.09 215.96 181.02 228.96 193.13 228.96 193.13 215.96"/><polygon class="bddee392-695b-4c5f-8ece-da9fb2e20d54" points="144.71 217.04 132.47 217.04 132.47 228.13 144.39 228.13 144.39 241.19 120.13 241.19 120.13 277.67 179.96 277.67 179.96 265.48 192.09 265.48 192.09 253.49 205.33 253.49 205.33 277.67 216.47 277.67 216.47 252.24 204.22 252.24 204.22 241.32 181.02 241.32 181.02 228.96 168.85 228.96 168.85 253.45 156.75 253.45 156.75 265.46 131.13 265.46 131.13 252.24 144.39 252.24 144.39 241.3 155.54 241.3 155.54 228.96 168.85 228.96 168.85 205.01 144.71 205.01 144.71 217.04"/><rect class="bddee392-695b-4c5f-8ece-da9fb2e20d54" x="120.13" y="205.01" width="12.22" height="11.91"/><rect class="bddee392-695b-4c5f-8ece-da9fb2e20d54" x="241.79" y="144.15" width="10.9" height="11.99"/><polygon class="bddee392-695b-4c5f-8ece-da9fb2e20d54" points="132.34 192.64 132.34 205.01 144.71 205.01 144.51 192.64 132.34 192.64"/><polygon class="bddee392-695b-4c5f-8ece-da9fb2e20d54" points="277.57 120.32 252.69 120.32 252.69 131.54 265.13 131.54 265.13 168.38 253.12 168.38 253.12 180.56 265.13 180.56 265.13 216.88 277.57 216.88 277.57 120.32"/><rect class="bddee392-695b-4c5f-8ece-da9fb2e20d54" x="253.6" y="241.34" width="23.45" height="11.19"/><rect class="bddee392-695b-4c5f-8ece-da9fb2e20d54" x="266.12" y="265.72" width="10.93" height="10.9"/></svg>