<svg id="e6ac9944-4b13-437e-b1da-c598dd6df06e" data-name="Layer 1" xmlns="http://www.w3.org/2000/svg" viewBox="0 0 65 65"><defs><style>.f7b88d1d-fabd-4e40-946a-41b823ae3e03{fill:#fff;}</style></defs><title>LEFA-QR-Resources</title><path class="f7b88d1d-fabd-4e40-946a-41b823ae3e03" d="M28,28.1a3.14,3.14,0,0,0-1.19-1,3.44,3.44,0,0,0-1.59-.35,3.39,3.39,0,0,0-1.57.35,3.19,3.19,0,0,0-1.18,1,4.82,4.82,0,0,0-.75,1.68,8.93,8.93,0,0,0-.27,2.31v.82a8.93,8.93,0,0,0,.27,2.31,4.79,4.79,0,0,0,.75,1.69,3.19,3.19,0,0,0,1.2,1,3.39,3.39,0,0,0,1.57.35,3.17,3.17,0,0,0,2.77-1.37,6.9,6.9,0,0,0,1-4v-.82a9.45,9.45,0,0,0-.25-2.31A5,5,0,0,0,28,28.1Z"/><path class="f7b88d1d-fabd-4e40-946a-41b823ae3e03" d="M42.69,28.44a2.21,2.21,0,0,0-.52-.84,2.33,2.33,0,0,0-.91-.53,4,4,0,0,0-1.33-.19H37.16v5.23h2.78a3.79,3.79,0,0,0,1.28-.19,2.47,2.47,0,0,0,.91-.54,2.05,2.05,0,0,0,.55-.81,2.91,2.91,0,0,0,.18-1A3.16,3.16,0,0,0,42.69,28.44Z"/><path class="f7b88d1d-fabd-4e40-946a-41b823ae3e03" d="M32.5,2.13A30.37,30.37,0,1,0,62.87,32.5,30.37,30.37,0,0,0,32.5,2.13Zm-.76,30.78a10.19,10.19,0,0,1-.47,3.19A7,7,0,0,1,30,38.49a5.72,5.72,0,0,1-2,1.51,6.94,6.94,0,0,1-5.27,0,5.76,5.76,0,0,1-2-1.51,6.7,6.7,0,0,1-1.34-2.39,9.9,9.9,0,0,1-.48-3.19v-.8a9.9,9.9,0,0,1,.48-3.19,6.93,6.93,0,0,1,1.33-2.41,5.84,5.84,0,0,1,2-1.51,6.94,6.94,0,0,1,5.27,0A5.79,5.79,0,0,1,30,26.51a6.91,6.91,0,0,1,1.32,2.41,10.19,10.19,0,0,1,.47,3.19Zm14.48,7.4H43.31l-3.13-6h-3v6H34.44V24.69h5.49a8.37,8.37,0,0,1,2.4.31,4.77,4.77,0,0,1,1.77.9,3.83,3.83,0,0,1,1.1,1.47,5.19,5.19,0,0,1,.38,2A4.41,4.41,0,0,1,44.82,32a4.78,4.78,0,0,1-2.11,1.63l3.51,6.51Z"/></svg>