<svg height="480pt" viewBox="-2 0 480 480" width="480pt" xmlns="http://www.w3.org/2000/svg"><path d="m468.855469 328v144h-48v-144zm0 0" fill="#898890"/><path d="m166.378906 359.761719c3.398438-9.484375 12.402344-15.796875 22.476563-15.761719l79.921875 16 52.320312-13.761719c5.863282-1.589843 11.925782-2.320312 18-2.160156 14.308594-.175781 28.507813 2.519531 41.757813 7.921875h40v96l-88 8-125.679688-8c-16.859375.003906-33.039062-6.636719-45.039062-18.480469l-147.121094-113.441406c-6.417969-5.980469-9.0625-14.992187-6.890625-23.496094 2.171875-8.503906 8.8125-15.144531 17.316406-17.3125 8.503906-2.171875 17.511719.46875 23.496094 6.890625zm0 0" fill="#ffbcab"/><g fill="#ffda44"><path d="m236.855469 40v-16l.402343-16c35.34375.109375 63.910157 28.855469 63.800782 64.199219-.113282 35.347656-28.855469 63.910156-64.203125 63.800781h-.398438l.398438-16v-16c8.839843 0 16-7.164062 16-16s-7.160157-16-16-16c-8.835938 0-16-7.164062-16-16s7.164062-16 16-16zm0 0"/><path d="m236.855469 224v-16l.402343-16c35.34375.109375 63.910157 28.855469 63.800782 64.199219-.113282 35.347656-28.855469 63.910156-64.203125 63.800781h-.398438l.398438-16v-16c8.839843 0 16-7.164062 16-16s-7.160157-16-16-16c-8.835938 0-16-7.164062-16-16s7.164062-16 16-16zm0 0"/><path d="m236.855469 104v16l-.398438 16c-35.347656-.109375-63.910156-28.855469-63.800781-64.199219.113281-35.347656 28.855469-63.910156 64.199219-63.800781h.402343l-.402343 16v16c-8.835938 0-16 7.164062-16 16s7.164062 16 16 16c8.839843 0 16 7.164062 16 16s-7.160157 16-16 16zm0 0"/><path d="m236.855469 288v16l-.398438 16c-35.347656-.109375-63.910156-28.855469-63.800781-64.199219.113281-35.347656 28.855469-63.910156 64.199219-63.800781h.402343l-.402343 16v16c-8.835938 0-16 7.164062-16 16s7.164062 16 16 16c8.839843 0 16 7.164062 16 16s-7.160157 16-16 16zm0 0"/></g><path d="m468.855469 320h-48c-4.417969 0-8 3.582031-8 8v16h-30.335938c-13.765625-5.355469-28.425781-8.035156-43.199219-7.894531-6.824218-.167969-13.636718.640625-20.230468 2.398437l-50.542969 13.320313-78.089844-15.664063c-.527343-.113281-1.0625-.164062-1.601562-.160156-9.871094 0-19.191407 4.558594-25.253907 12.351562l-109.625-72.441406c-12.722656-11.546875-32.210937-11.28125-44.617187.609375-12.480469 12.496094-12.480469 32.738281 0 45.234375.253906.238282.523437.46875.800781.679688l146.695313 113.152344c13.285156 13.035156 31.140625 20.363281 49.753906 20.414062h.0625l125.679687 8h.503907.722656l79.277344-7.199219v15.199219c0 4.417969 3.582031 8 8 8h48c4.421875 0 8-3.582031 8-8v-144c0-4.417969-3.578125-8-8-8zm-136.109375 128-125.601563-8c-14.761719.035156-28.9375-5.78125-39.421875-16.175781-.234375-.226563-.476562-.441407-.730468-.640625l-146.640626-113.078125c-5.925781-6.292969-5.785156-16.15625.320313-22.273438 6.320313-6.058593 16.289063-6.058593 22.609375 0 .375.382813.792969.722657 1.238281 1.015625l112.800781 74.511719c-.269531 1.535156-.425781 3.085937-.464843 4.640625.019531 17.335938 13.824219 31.515625 31.152343 32l79.25 15.839844c.527344.109375 1.0625.164062 1.597657.160156 4.113281.003906 7.554687-3.105469 7.96875-7.195312.414062-4.089844-2.339844-7.828126-6.367188-8.644532l-80-16c-.527343-.113281-1.0625-.164062-1.601562-.160156-8.835938 0-16-7.164062-16-16 .011719-1.898438.367187-3.78125 1.058593-5.550781 2.183594-6.046875 7.808594-10.175781 14.230469-10.449219l79.066407 15.824219c1.191406.25 2.429687.214843 3.605468-.105469l52.335938-13.789062c5.144531-1.339844 10.449218-1.960938 15.761718-1.851563 13.246094-.238281 26.40625 2.210937 38.679688 7.203125 1.023438.464844 2.136719.710938 3.261719.71875h32v80.710938zm128.109375 16h-32v-128h32zm0 0"/><path d="m236.855469 144c39.765625 0 72-32.234375 72-72s-32.234375-72-72-72c-39.761719 0-72 32.234375-72 72 .050781 39.746094 32.257812 71.953125 72 72zm0-128c30.929687 0 56 25.070312 56 56s-25.070313 56-56 56c-30.925781 0-56-25.070312-56-56 .035156-30.914062 25.089843-55.964844 56-56zm0 0"/><path d="m236.855469 96c-4.417969 0-8-3.582031-8-8h-16c.042969 10.132812 6.445312 19.148438 16 22.527344v9.472656h16v-9.472656c11.015625-3.878906 17.625-15.132813 15.644531-26.640625-1.976562-11.507813-11.96875-19.910157-23.644531-19.886719-4.417969 0-8-3.582031-8-8s3.582031-8 8-8c4.421875 0 8 3.582031 8 8h16c-.039063-10.132812-6.445313-19.148438-16-22.527344v-9.472656h-16v9.472656c-11.011719 3.878906-17.621094 15.132813-15.640625 26.640625 1.976562 11.507813 11.96875 19.910157 23.640625 19.886719 4.421875 0 8 3.582031 8 8s-3.578125 8-8 8zm0 0"/><path d="m236.855469 328c39.765625 0 72-32.234375 72-72s-32.234375-72-72-72c-39.761719 0-72 32.234375-72 72 .050781 39.746094 32.257812 71.953125 72 72zm0-128c30.929687 0 56 25.070312 56 56s-25.070313 56-56 56c-30.925781 0-56-25.070312-56-56 .035156-30.914062 25.089843-55.964844 56-56zm0 0"/><path d="m236.855469 280c-4.417969 0-8-3.582031-8-8h-16c.042969 10.132812 6.445312 19.148438 16 22.527344v9.472656h16v-9.472656c11.015625-3.878906 17.625-15.132813 15.644531-26.640625-1.976562-11.507813-11.96875-19.910157-23.644531-19.886719-4.417969 0-8-3.582031-8-8s3.582031-8 8-8c4.421875 0 8 3.582031 8 8h16c-.039063-10.132812-6.445313-19.148438-16-22.527344v-9.472656h-16v9.472656c-11.011719 3.878906-17.621094 15.132813-15.640625 26.640625 1.976562 11.507813 11.96875 19.910157 23.640625 19.886719 4.421875 0 8 3.582031 8 8s-3.578125 8-8 8zm0 0"/></svg>