<svg id="a1a94c1f-457a-47e7-90ab-f33f8ab6deb4" data-name="Layer 1" xmlns="http://www.w3.org/2000/svg" viewBox="0 0 686.59 400.43"><defs><style>.af41d7d0-a637-4bb3-beb6-cf6bf84edb27{fill:#404041;}.eff5e1e8-d72b-49ee-ba09-122aa88e8cd7,.fce06fb9-0fb6-456a-be7b-764a203cb377{fill:none;}.b5df4f23-9445-4466-95d1-b81c9b8edfb7{fill:#7859a0;}.eff5e1e8-d72b-49ee-ba09-122aa88e8cd7{stroke:#f05a28;stroke-miterlimit:10;stroke-width:0.4px;}.b393561a-02a7-4a71-bad7-1db5d39dbb40{fill:#fff;}.aea81301-2d04-44d8-9e3b-d83746e30cb3{fill:#e6e5ec;}.eb12f59d-0158-43f2-8e54-263f98f43b79{fill:#c5c2d7;}.f8eb3655-c417-4c6e-b40d-2b53b0c4eef8{fill:#fce3ab;}.bce906d0-0211-44a2-9627-d45a640b5cb3{fill:#d0d2d3;}.e795b509-e4e1-42d6-8d24-6086bd6e3e84{fill:#e7e5e9;}.a1473ea8-f9eb-447a-8786-87a094c1ab11{fill:#7e6cac;}.ad7542bf-ef76-4659-82c1-d60cc8fc6b26{fill:#231f20;opacity:0.2;}</style></defs><title>rocket-bg</title><path class="af41d7d0-a637-4bb3-beb6-cf6bf84edb27" d="M262.76,124.7v-2.51C262.75,122.86,262.75,123.71,262.76,124.7Z" transform="translate(-49.23 -16.76)"/><path class="fce06fb9-0fb6-456a-be7b-764a203cb377" d="M717.17,417.19h6.06c-1-.08-2-.13-2.93-.13S718.21,417.1,717.17,417.19Z" transform="translate(-49.23 -16.76)"/><path class="b5df4f23-9445-4466-95d1-b81c9b8edfb7" d="M539.81,348.49a1.5,1.5,0,0,0,1.34-.83,32.49,32.49,0,0,1,28.25-17.82h.76a1.5,1.5,0,0,0,0-3h-.83a35.45,35.45,0,0,0-30.85,19.47,1.51,1.51,0,0,0,1.33,2.18Z" transform="translate(-49.23 -16.76)"/><path class="b5df4f23-9445-4466-95d1-b81c9b8edfb7" d="M455.87,359.78a32.51,32.51,0,0,1,51.27,12,1.5,1.5,0,1,0,2.76-1.17,35.5,35.5,0,0,0-56-13.07,1.5,1.5,0,0,0,2,2.27Z" transform="translate(-49.23 -16.76)"/><path class="b5df4f23-9445-4466-95d1-b81c9b8edfb7" d="M720.3,417.06c1,0,2,.05,2.93.13h12.59a40.21,40.21,0,0,0-27.22-1.4c-4.4-14.76-18.85-25-35.68-25a39.67,39.67,0,0,0-12.62,2,49.45,49.45,0,0,0-40.89-35.57,49.5,49.5,0,0,0-98.75,5,50.2,50.2,0,0,0,.76,8.68,1.5,1.5,0,1,0,3-.52,47.24,47.24,0,0,1-.71-8.16,46.5,46.5,0,1,1,85.86,24.79,1.5,1.5,0,1,0,2.53,1.6,49.35,49.35,0,0,0,7.61-26.39c0-.66,0-1.31,0-2a46.44,46.44,0,0,1,39.54,46,1.5,1.5,0,1,0,3,0A50.1,50.1,0,0,0,661,395.8a36.63,36.63,0,0,1,11.9-2c15.69,0,29.12,9.57,33,23.36h11.3C718.21,417.1,719.25,417.06,720.3,417.06Z" transform="translate(-49.23 -16.76)"/><path class="b5df4f23-9445-4466-95d1-b81c9b8edfb7" d="M50,411.18a1.5,1.5,0,0,0,2-.6c5-9.23,13.47-14.75,22.61-14.75a22.67,22.67,0,0,1,6.88,1.07,1.5,1.5,0,0,0,.91-2.86,25.71,25.71,0,0,0-6.77-1.17c0-.18,0-.36,0-.54a32.5,32.5,0,0,1,52.26-25.8,1.51,1.51,0,0,0,1.06.85h0a1.5,1.5,0,0,0,2.08-.21,1.49,1.49,0,0,0-.08-2,45.54,45.54,0,0,1,59.37-32.75,1.5,1.5,0,1,0,1-2.83,48.55,48.55,0,0,0-63,33.57,35.5,35.5,0,0,0-55.73,29.17c0,.2,0,.39,0,.58-9.49.73-18.08,6.68-23.27,16.24A1.5,1.5,0,0,0,50,411.18Z" transform="translate(-49.23 -16.76)"/><path class="b5df4f23-9445-4466-95d1-b81c9b8edfb7" d="M381.43,346.35A32.47,32.47,0,0,1,414,348.2a35.72,35.72,0,0,0-3.11,10.91,1.5,1.5,0,0,0,1.31,1.67h.18a1.5,1.5,0,0,0,1.49-1.33,32.35,32.35,0,0,1,24.16-27.61v9.48a1.5,1.5,0,0,0,3,0V328.15l-1.79.35a35.35,35.35,0,0,0-23.84,17,35.43,35.43,0,0,0-35.35-1.86,1.5,1.5,0,0,0,1.36,2.67Z" transform="translate(-49.23 -16.76)"/><path class="b5df4f23-9445-4466-95d1-b81c9b8edfb7" d="M300.16,377.41a1.5,1.5,0,0,0,1.5-1.5c0-5.23,3.82-9.5,8.5-9.5a8,8,0,0,1,5.52,2.29c0,.21,0,.42,0,.63a1.5,1.5,0,0,0,3,0c0-17.92,12.79-32.5,28.5-32.5a25.79,25.79,0,0,1,13.49,3.87,1.5,1.5,0,1,0,1.57-2.56,28.79,28.79,0,0,0-15.06-4.31c-16.09,0-29.39,13.68-31.26,31.26a10.71,10.71,0,0,0-5.74-1.68c-6.34,0-11.5,5.61-11.5,12.5A1.5,1.5,0,0,0,300.16,377.41Z" transform="translate(-49.23 -16.76)"/><path class="b5df4f23-9445-4466-95d1-b81c9b8edfb7" d="M201.07,338.06a32.42,32.42,0,0,1,16.41,22.41,35.68,35.68,0,0,0-9.3,9.84,1.5,1.5,0,1,0,2.53,1.61,32.49,32.49,0,0,1,47.21-8.38,38.77,38.77,0,0,0-4.26,17.79,1.5,1.5,0,0,0,3,0c0-17.92,12.79-32.5,28.5-32.5a1.5,1.5,0,0,0,0-3c-10.62,0-20,6-25.74,15.08a35.48,35.48,0,0,0-39.24-2.19,35.36,35.36,0,0,0-17.71-23.31,1.5,1.5,0,1,0-1.4,2.65Z" transform="translate(-49.23 -16.76)"/><path class="eff5e1e8-d72b-49ee-ba09-122aa88e8cd7" d="M243.46,218.7" transform="translate(-49.23 -16.76)"/><rect class="b393561a-02a7-4a71-bad7-1db5d39dbb40" x="183.58" y="272.25" width="21.44" height="128.18"/><rect class="b393561a-02a7-4a71-bad7-1db5d39dbb40" x="142.35" y="292.43" width="13.38" height="108"/><rect class="b393561a-02a7-4a71-bad7-1db5d39dbb40" x="232.79" y="292.43" width="13.38" height="108"/><path class="aea81301-2d04-44d8-9e3b-d83746e30cb3" d="M222.48,152.81c-2.07,9.25-5.47,19-11,27.66-1.23,1.92-2.51,3.74-3.76,5.43v72.77c4.5,1,9.45,2,14.79,3.12Z" transform="translate(-49.23 -16.76)"/><path class="aea81301-2d04-44d8-9e3b-d83746e30cb3" d="M189.25,205.31c-.51.42-.91.74-1.16.93h0c-1.06.85-1.94,1.53-2.8,2.19-1.69,1.29-3.16,2.42-5.42,4.43l-.19.17a42.36,42.36,0,0,0-5.74,6.09l-.22.29a18.06,18.06,0,0,0-1.89,2.74,14,14,0,0,0-1.54,5.77v18.8a5.43,5.43,0,0,0,.57,1.22,6.51,6.51,0,0,0,2.62,2.18,24.34,24.34,0,0,0,5.06,2.15c1.37.34,5.06,1.18,10.7,2.41Z" transform="translate(-49.23 -16.76)"/><path class="aea81301-2d04-44d8-9e3b-d83746e30cb3" d="M264.45,261.79c5.34-1.12,10.29-2.16,14.79-3.12V185.9c-1.26-1.69-2.53-3.51-3.76-5.43a86,86,0,0,1-11-27.65Z" transform="translate(-49.23 -16.76)"/><path class="aea81301-2d04-44d8-9e3b-d83746e30cb3" d="M280.77,187.92v70.43c6-1.28,11.17-2.4,15.38-3.32V204c-1.73-1.49-4-3.54-6.38-5.8A110.12,110.12,0,0,1,280.77,187.92Z" transform="translate(-49.23 -16.76)"/><path class="aea81301-2d04-44d8-9e3b-d83746e30cb3" d="M190.78,204v51c4.21.92,9.37,2,15.38,3.32V187.92a110.12,110.12,0,0,1-9,10.29C194.81,200.47,192.51,202.52,190.78,204Z" transform="translate(-49.23 -16.76)"/><path class="aea81301-2d04-44d8-9e3b-d83746e30cb3" d="M313.2,219.42l-.23-.29a41.91,41.91,0,0,0-5.73-6.09l-.19-.17c-2.26-2-3.73-3.14-5.42-4.43-.86-.66-1.74-1.34-2.8-2.19h0c-.25-.19-.65-.51-1.16-.93v49.38c5.64-1.23,9.32-2.07,10.7-2.41a24.85,24.85,0,0,0,5.06-2.15,6.51,6.51,0,0,0,2.62-2.18,5.43,5.43,0,0,0,.57-1.22v-18.8a14,14,0,0,0-1.54-5.77A18.06,18.06,0,0,0,313.2,219.42Z" transform="translate(-49.23 -16.76)"/><path class="aea81301-2d04-44d8-9e3b-d83746e30cb3" d="M264.45,144.43a99.08,99.08,0,0,0,8.28,27.95V109.23h0V73c-1.8-23.47-16.59-54.73-29.31-54.73h-.09c-5.8.07-12.55,6.7-18.52,18.19A104.72,104.72,0,0,0,213.92,73v36.15h0V173a98.6,98.6,0,0,0,8.57-28.61V119.44a63.79,63.79,0,0,1,7.45-24.73c4.13-7.41,9.06-11.65,13.53-11.65,8.42,0,19.79,19.73,21,36.39v25Z" transform="translate(-49.23 -16.76)"/><rect class="eb12f59d-0158-43f2-8e54-263f98f43b79" x="232.74" y="280.23" width="13.38" height="3.99"/><rect class="eb12f59d-0158-43f2-8e54-263f98f43b79" x="142.29" y="280.21" width="13.38" height="3.99"/><path class="f8eb3655-c417-4c6e-b40d-2b53b0c4eef8" d="M212.39,149.34H183.76v32.34h24.83V182c.53-.76,1.06-1.55,1.57-2.35q1.26-2,2.37-4h-.14Z" transform="translate(-49.23 -16.76)"/><path class="f8eb3655-c417-4c6e-b40d-2b53b0c4eef8" d="M183.76,183.21v24.48c1-.79,2.08-1.59,3.39-2.63,0,0,.79-.64,2.1-1.75h0c1.66-1.41,4.14-3.59,6.85-6.2a111.75,111.75,0,0,0,11.65-13.89Z" transform="translate(-49.23 -16.76)"/><polygon class="f8eb3655-c417-4c6e-b40d-2b53b0c4eef8" points="163.16 119.37 163.16 99.1 134.53 99.1 134.53 131.05 163.16 131.05 163.16 119.37"/><path class="f8eb3655-c417-4c6e-b40d-2b53b0c4eef8" d="M212.39,109.22c-.94-17.64-9.74-34.92-14.31-34.92-6,0-13.2,17.65-14.32,35v5.06h28.63Z" transform="translate(-49.23 -16.76)"/><path class="f8eb3655-c417-4c6e-b40d-2b53b0c4eef8" d="M302.89,109.23c-.94-17.65-9.74-34.92-14.32-34.92-6,0-13.19,17.63-14.31,34.94v5.07h28.63Z" transform="translate(-49.23 -16.76)"/><rect class="f8eb3655-c417-4c6e-b40d-2b53b0c4eef8" x="225.03" y="99.09" width="28.64" height="31.94"/><path class="f8eb3655-c417-4c6e-b40d-2b53b0c4eef8" d="M278.11,181.66h24.78V149.32H274.26V175h0v.37c.78,1.44,1.61,2.86,2.51,4.25C277.21,180.33,277.66,181,278.11,181.66Z" transform="translate(-49.23 -16.76)"/><path class="f8eb3655-c417-4c6e-b40d-2b53b0c4eef8" d="M299.78,205.06c1.19.95,2.17,1.69,3.11,2.42V183.19H279.17a111.55,111.55,0,0,0,11.66,13.91c2.71,2.61,5.19,4.79,6.85,6.2h0C299,204.42,299.78,205.06,299.78,205.06Z" transform="translate(-49.23 -16.76)"/><path class="f8eb3655-c417-4c6e-b40d-2b53b0c4eef8" d="M274.34,290.81a4.64,4.64,0,0,0,4.64,4.64h19.36a4.64,4.64,0,0,0,4.64-4.64V260.27l-28.64,6.14Z" transform="translate(-49.23 -16.76)"/><path class="f8eb3655-c417-4c6e-b40d-2b53b0c4eef8" d="M183.9,290.79a4.64,4.64,0,0,0,4.64,4.64h19.35a4.64,4.64,0,0,0,4.64-4.64v-24.4l-28.63-6.13Z" transform="translate(-49.23 -16.76)"/><path class="bce906d0-0211-44a2-9627-d45a640b5cb3" d="M264.45,267l38.95-8.34.1-3.65c-7.46,1.67-21.45,4.71-39.05,8.38Z" transform="translate(-49.23 -16.76)"/><path class="bce906d0-0211-44a2-9627-d45a640b5cb3" d="M183.52,258.62l39,8.34v-3.6c-17.61-3.68-31.6-6.72-39.06-8.39Z" transform="translate(-49.23 -16.76)"/><path class="e795b509-e4e1-42d6-8d24-6086bd6e3e84" d="M205.63,304.07a10.23,10.23,0,0,1-.57-1.58H191.32a8.86,8.86,0,0,1-.52,1.58,9.29,9.29,0,0,1-.67,1.29,3.17,3.17,0,0,0-.48,1.12,5.81,5.81,0,0,0-.05.72v.38a.45.45,0,0,0,.45.45h16.33a.46.46,0,0,0,.46-.45v-.38a4.37,4.37,0,0,0-.06-.72,3.13,3.13,0,0,0-.47-1.12A9.35,9.35,0,0,1,205.63,304.07Z" transform="translate(-49.23 -16.76)"/><path class="e795b509-e4e1-42d6-8d24-6086bd6e3e84" d="M296.07,304.09a10.11,10.11,0,0,1-.56-1.58H281.76a9,9,0,0,1-1.19,2.87,3,3,0,0,0-.47,1.12,4.37,4.37,0,0,0-.06.72v.38a.45.45,0,0,0,.45.45h16.34a.45.45,0,0,0,.45-.45v-.38a4.37,4.37,0,0,0-.06-.72,3,3,0,0,0-.47-1.12A8.81,8.81,0,0,1,296.07,304.09Z" transform="translate(-49.23 -16.76)"/><path class="e795b509-e4e1-42d6-8d24-6086bd6e3e84" d="M254.19,281.22v-9.28H232.75v9.28a9.46,9.46,0,0,1-1.18,4.6,8.91,8.91,0,0,1-1,1.45.61.61,0,0,0,.46.2h24.88a.63.63,0,0,0,.46-.2,9.65,9.65,0,0,1-1-1.45A9.45,9.45,0,0,1,254.19,281.22Z" transform="translate(-49.23 -16.76)"/><path class="a1473ea8-f9eb-447a-8786-87a094c1ab11" d="M243.47,83.72c-8.49,0-18.72,17.8-20.3,35.28v93.13h0v.8a.34.34,0,0,1,0,.1v57.24a1,1,0,0,0,1,1h38.53a1,1,0,0,0,1-1v-.57h0V212.93l0-.8h0V119C262.52,102.3,250.61,83.72,243.47,83.72Z" transform="translate(-49.23 -16.76)"/><rect class="ad7542bf-ef76-4659-82c1-d60cc8fc6b26" x="181.99" y="255.16" width="24.5" height="3.75"/><path class="ad7542bf-ef76-4659-82c1-d60cc8fc6b26" d="M272.81,266.73,303,260.26a4.67,4.67,0,0,0,.8-.22,4,4,0,0,0,.74-.34v4.22l-31.7,7Z" transform="translate(-49.23 -16.76)"/><path class="ad7542bf-ef76-4659-82c1-d60cc8fc6b26" d="M214.07,266.72l-30.16-6.47a4.44,4.44,0,0,1-.8-.22,5.45,5.45,0,0,1-.74-.41v4.28l31.7,7Z" transform="translate(-49.23 -16.76)"/><rect class="ad7542bf-ef76-4659-82c1-d60cc8fc6b26" x="140.76" y="280.21" width="16.44" height="1.58"/><rect class="ad7542bf-ef76-4659-82c1-d60cc8fc6b26" x="231.21" y="280.21" width="16.44" height="1.58"/><path class="ad7542bf-ef76-4659-82c1-d60cc8fc6b26" d="M264.45,144.43a62.91,62.91,0,0,0,8.13,21.09c.31.5.62,1,.94,1.47v7.94l-3.12-5.78-2-5.56-1.92-6.29-2-6.92-.69-4.2Z" transform="translate(-49.23 -16.76)"/><path class="ad7542bf-ef76-4659-82c1-d60cc8fc6b26" d="M222.48,144.43a62.91,62.91,0,0,1-8.13,21.09c-.31.5-.62,1-.94,1.47v7.94l3.12-5.78,2-5.56,1.93-6.29,2-6.92.68-4.2Z" transform="translate(-49.23 -16.76)"/><path class="af41d7d0-a637-4bb3-beb6-cf6bf84edb27" d="M316.45,221.45a21.32,21.32,0,0,0-2.26-3.25,44.81,44.81,0,0,0-6.12-6.47c-1.45-1.29-2.58-2.22-3.65-3.07V109.19c-.88-16.68-9.47-36.41-15.85-36.41-5.93,0-11.6,11.93-14.31,25.2v-25c-1.87-24.6-17.14-56.17-30.84-56.17h-.1c-6.47.07-13.53,6.83-19.86,19a106.29,106.29,0,0,0-11,37.14V98.3c-2.92-13.32-9.3-25.53-14.31-25.53-7.6,0-14.76,19.57-15.85,36.45v99.67c-1,.78-2,1.66-3.37,2.84a44.22,44.22,0,0,0-6.12,6.47,21.32,21.32,0,0,0-2.26,3.25,15.66,15.66,0,0,0-1.71,6.44V247a6.46,6.46,0,0,0,.81,1.82,7.84,7.84,0,0,0,3.18,2.71,25.91,25.91,0,0,0,5.42,2.29c.74.18,2,.48,3.81.88v4a1.57,1.57,0,0,0,.38,1v31.17a6.17,6.17,0,0,0,6.17,6.17H190v4h0v.1a7.91,7.91,0,0,1-.59,2.41,8.17,8.17,0,0,1-.57,1.07,4.61,4.61,0,0,0-.69,1.69,6.24,6.24,0,0,0-.07,1v.38a2,2,0,0,0,2,2h16.33a2,2,0,0,0,2-2v-.38a6.24,6.24,0,0,0-.08-1,4.61,4.61,0,0,0-.69-1.69,8.17,8.17,0,0,1-.56-1.07,6,6,0,0,1-.6-2V297h1.45a6.18,6.18,0,0,0,6.18-6.17V266.72l8.42,1.81v.89a2.52,2.52,0,0,0,2.52,2.52h6.21v9.28a8,8,0,0,1-1,3.85,7.53,7.53,0,0,1-.9,1.28,1.39,1.39,0,0,0-.14,1.63,2.15,2.15,0,0,0,1.83,1h24.88a2.15,2.15,0,0,0,1.83-1,1.39,1.39,0,0,0-.15-1.63,7.51,7.51,0,0,1-.89-1.28,7.87,7.87,0,0,1-1-3.85v-9.28h6.21a2.52,2.52,0,0,0,2.52-2.52v-.9l8.36-1.79v24.08A6.17,6.17,0,0,0,279,297h1.46v4h0v.1a7.69,7.69,0,0,1-.6,2.41,7.58,7.58,0,0,1-.56,1.07,4.59,4.59,0,0,0-.69,1.7,5,5,0,0,0-.08,1v.38a2,2,0,0,0,2,2h16.34a2,2,0,0,0,2-2v-.38a6,6,0,0,0-.08-1,4.59,4.59,0,0,0-.69-1.7,7.58,7.58,0,0,1-.56-1.07,6,6,0,0,1-.6-2V297h1.46a6.17,6.17,0,0,0,6.17-6.17V259.67a1.54,1.54,0,0,0,.42-1.05v-4c1.78-.4,3.08-.7,3.81-.88a25.84,25.84,0,0,0,5.43-2.29,7.91,7.91,0,0,0,3.18-2.71,6.76,6.76,0,0,0,.81-1.82V227.89A15.66,15.66,0,0,0,316.45,221.45Zm-42.19-112.2c1.12-17.31,8.34-34.94,14.31-34.94,4.58,0,13.38,17.27,14.32,34.92v5.09H274.26Zm0,6.6h28.63v31.94H274.26Zm0,59.17h0v-25.7h28.63v32.34H278.11c-.45-.66-.9-1.33-1.34-2-.9-1.39-1.73-2.81-2.51-4.25Zm23.42,28.28c-1.66-1.41-4.14-3.59-6.85-6.2a111.55,111.55,0,0,1-11.66-13.91h23.72v24.29c-.94-.73-1.92-1.47-3.11-2.42,0,0-.8-.64-2.1-1.75Zm-1.53.71v51c-4.21.92-9.37,2-15.38,3.32V187.92a110.12,110.12,0,0,0,9,10.29C292.12,200.47,294.42,202.52,296.15,204Zm-20.67-23.54c1.23,1.92,2.5,3.74,3.76,5.43v72.77c-4.5,1-9.45,2-14.79,3.12v-109A86,86,0,0,0,275.48,180.47Zm-63-4.84q-1.11,2-2.37,4c-.51.8-1,1.59-1.57,2.35v-.31H183.76V149.34h28.63v26.29ZM196.1,197.1c-2.71,2.61-5.19,4.79-6.85,6.2h0c-1.31,1.11-2.1,1.75-2.1,1.75-1.31,1-2.36,1.84-3.39,2.63V183.21h24A111.75,111.75,0,0,1,196.1,197.1Zm10.06-9.18v70.43c-6-1.28-11.17-2.4-15.38-3.32V204c1.73-1.49,4-3.54,6.38-5.8A110.12,110.12,0,0,0,206.16,187.92Zm1.53-2c1.25-1.69,2.53-3.51,3.76-5.43,5.56-8.64,9-18.41,11-27.66v109c-5.34-1.12-10.29-2.16-14.79-3.12Zm-23.93-70h28.63v32H183.76ZM198.08,74.3c4.57,0,13.37,17.28,14.31,34.92v5.11H183.76v-5.06C184.88,92,192.1,74.3,198.08,74.3Zm-19.53,178a24.34,24.34,0,0,1-5.06-2.15,6.51,6.51,0,0,1-2.62-2.18,5.43,5.43,0,0,1-.57-1.22v-18.8a14,14,0,0,1,1.54-5.77,18.06,18.06,0,0,1,1.89-2.74l.22-.29a42.36,42.36,0,0,1,5.74-6.09l.19-.17c2.26-2,3.73-3.14,5.42-4.43.86-.66,1.74-1.34,2.8-2.19h0c.25-.19.65-.51,1.16-.93v49.38C183.61,253.46,179.92,252.62,178.55,252.28Zm28.23,54.2a4.37,4.37,0,0,1,.06.72v.38a.46.46,0,0,1-.46.45H190.05a.45.45,0,0,1-.45-.45v-.38a5.81,5.81,0,0,1,.05-.72,3.17,3.17,0,0,1,.48-1.12,9.29,9.29,0,0,0,.67-1.29,8.86,8.86,0,0,0,.52-1.58h13.74a10.23,10.23,0,0,0,.57,1.58,9.35,9.35,0,0,0,.68,1.29A3.13,3.13,0,0,1,206.78,306.48ZM191.53,301v-4h13.38v4Zm21-10.16a4.64,4.64,0,0,1-4.64,4.64H188.54a4.64,4.64,0,0,1-4.64-4.64V260.26l28.63,6.13Zm10-23.83-39-8.34-.09-3.65c7.46,1.67,21.45,4.71,39.06,8.39Zm33.88,20.31a.63.63,0,0,1-.46.2H231a.61.61,0,0,1-.46-.2,8.91,8.91,0,0,0,1-1.45,9.46,9.46,0,0,0,1.18-4.6v-9.28h21.44v9.28a9.45,9.45,0,0,0,1.17,4.6A9.65,9.65,0,0,0,256.37,287.27Zm6.55-161.73v86.27h0l0,.79a.13.13,0,0,0,0,.06v56.19h0v.57a1,1,0,0,1-1,1H225a1,1,0,0,1-1-1V212.7s0-.07,0-.1v-.79h0V119.54c1.51-17.32,11.32-34.95,19.45-34.95,6.85,0,18.26,18.4,19.45,35Zm1.53-6.09c-1.19-16.66-12.56-36.39-21-36.39-4.47,0-9.4,4.24-13.53,11.65a63.79,63.79,0,0,0-7.45,24.73v24.92A98.6,98.6,0,0,1,213.92,173V109.18h0V73a104.72,104.72,0,0,1,10.89-36.55c6-11.49,12.72-18.12,18.52-18.19h.09c12.72,0,27.51,31.26,29.31,54.73v36.2h0v63.15a99.08,99.08,0,0,1-8.28-27.95v-25ZM297.22,306.5a4.37,4.37,0,0,1,.06.72v.38a.45.45,0,0,1-.45.45H280.49a.45.45,0,0,1-.45-.45v-.38a4.37,4.37,0,0,1,.06-.72,3,3,0,0,1,.47-1.12,9,9,0,0,0,1.19-2.87h13.75a10.11,10.11,0,0,0,.56,1.58,8.81,8.81,0,0,0,.68,1.29A3,3,0,0,1,297.22,306.5ZM282,301v-4h13.38v4Zm21-10.16a4.64,4.64,0,0,1-4.64,4.64H279a4.64,4.64,0,0,1-4.64-4.64v-24.4L303,260.27Zm.42-32.19L264.45,267v-3.61c17.6-3.67,31.59-6.71,39.05-8.38Zm13.23-11.89a5.43,5.43,0,0,1-.57,1.22,6.51,6.51,0,0,1-2.62,2.18,24.85,24.85,0,0,1-5.06,2.15c-1.38.34-5.06,1.18-10.7,2.41V205.31c.51.42.91.74,1.16.93h0c1.06.85,1.94,1.53,2.8,2.19,1.69,1.29,3.16,2.42,5.42,4.43l.19.17a41.91,41.91,0,0,1,5.73,6.09l.23.29a18.06,18.06,0,0,1,1.89,2.74,14,14,0,0,1,1.54,5.77Z" transform="translate(-49.23 -16.76)"/></svg>