<svg id="a92961dd-a3f7-4d48-8613-2e92642ecdd8" data-name="Layer 1" xmlns="http://www.w3.org/2000/svg" viewBox="0 0 100 100"><defs><style>.fa994e1d-d2d9-405a-a14b-2eb413c426b1{fill:#fff;}.afb5f52b-876a-4941-88c5-9c962e5c20d3{fill:#f4b71e;}</style></defs><title>LEFAWalletIcons</title><path class="fa994e1d-d2d9-405a-a14b-2eb413c426b1" d="M71.18,10H28.82A2.82,2.82,0,0,0,26,12.82V87.18A2.82,2.82,0,0,0,28.82,90H71.18A2.82,2.82,0,0,0,74,87.18V12.82A2.82,2.82,0,0,0,71.18,10ZM45.5,14.5h9a1.5,1.5,0,0,1,0,3h-9a1.5,1.5,0,0,1,0-3ZM71,78H29V22H71Z"/><path class="afb5f52b-876a-4941-88c5-9c962e5c20d3" d="M45,35H34V46H45Zm-2,9H36V37h7Z"/><path class="afb5f52b-876a-4941-88c5-9c962e5c20d3" d="M34,65H45V54H34Zm2-9h7v7H36Z"/><path class="afb5f52b-876a-4941-88c5-9c962e5c20d3" d="M55,35V46H66V35Zm9,9H57V37h7Z"/><rect class="afb5f52b-876a-4941-88c5-9c962e5c20d3" x="48.91" y="34.98" width="2.19" height="11.04"/><polygon class="afb5f52b-876a-4941-88c5-9c962e5c20d3" points="57 50.98 63 50.98 63 56.98 65 56.98 65 48.98 55 48.98 55 56.98 57 56.98 57 50.98"/><polygon class="afb5f52b-876a-4941-88c5-9c962e5c20d3" points="51.1 48.94 34 48.94 34 51.02 48.91 51.02 48.91 65.02 66 65.02 66 62.94 51.1 62.94 51.1 48.94"/></svg>