<svg id="b10c04cb-1232-46da-9da8-6377ee36f80d" data-name="Layer 1" xmlns="http://www.w3.org/2000/svg" viewBox="0 0 63.04 36.89"><defs><style>.f86ed566-6762-471c-b90a-1e4ec98bbb17{fill:#2e3192;}.af6ee0f7-d521-4f43-a905-9580894d43f3{fill:#fff;}</style></defs><title>three-simple-steps</title><path class="f86ed566-6762-471c-b90a-1e4ec98bbb17" d="M43,112.07" transform="translate(-2.26 -3.32)"/><path class="af6ee0f7-d521-4f43-a905-9580894d43f3" d="M6,5.67a2.75,2.75,0,0,1-.13.9,1.94,1.94,0,0,1-.38.68,1.58,1.58,0,0,1-.59.43,1.87,1.87,0,0,1-.76.15,1.86,1.86,0,0,1-.75-.15,1.58,1.58,0,0,1-.59-.43,1.81,1.81,0,0,1-.39-.68,2.74,2.74,0,0,1-.14-.9V5.48a2.83,2.83,0,0,1,.14-.9,2,2,0,0,1,.38-.68,1.66,1.66,0,0,1,.59-.43,1.87,1.87,0,0,1,.76-.15,1.83,1.83,0,0,1,.75.15,1.58,1.58,0,0,1,.59.43,1.89,1.89,0,0,1,.39.68,2.84,2.84,0,0,1,.13.9Zm-.91-.2a1.78,1.78,0,0,0-.25-1,.8.8,0,0,0-.7-.36.81.81,0,0,0-.71.36,1.86,1.86,0,0,0-.24,1v.2a2.8,2.8,0,0,0,.06.61,1.27,1.27,0,0,0,.19.44.84.84,0,0,0,.7.37.8.8,0,0,0,.71-.37,1.9,1.9,0,0,0,.24-1Z" transform="translate(-2.26 -3.32)"/><path class="af6ee0f7-d521-4f43-a905-9580894d43f3" d="M7.55,6.22V7.77h-.9V3.38H8.36a2.19,2.19,0,0,1,.7.11,1.44,1.44,0,0,1,.51.3,1.35,1.35,0,0,1,.33.46,1.58,1.58,0,0,1,.11.58,1.5,1.5,0,0,1-.11.58,1.28,1.28,0,0,1-.33.44,1.38,1.38,0,0,1-.51.27,2.19,2.19,0,0,1-.7.1Zm0-.73h.81a1,1,0,0,0,.33,0,.63.63,0,0,0,.23-.13.46.46,0,0,0,.13-.21.75.75,0,0,0,0-.26.76.76,0,0,0,0-.27.56.56,0,0,0-.13-.24.67.67,0,0,0-.23-.16.81.81,0,0,0-.33-.06H7.55Z" transform="translate(-2.26 -3.32)"/><path class="af6ee0f7-d521-4f43-a905-9580894d43f3" d="M13.27,5.87H11.53V7h2v.73H10.63V3.38h2.93v.73h-2v1h1.74Z" transform="translate(-2.26 -3.32)"/><path class="af6ee0f7-d521-4f43-a905-9580894d43f3" d="M17.66,7.77h-.9L15,4.88V7.77h-.9V3.38H15l1.76,2.89V3.38h.9Z" transform="translate(-2.26 -3.32)"/><path class="af6ee0f7-d521-4f43-a905-9580894d43f3" d="M22.46,6.86H20.88l-.3.91h-1l1.63-4.39h.84l1.64,4.39h-1Zm-1.34-.73h1.1l-.55-1.64Z" transform="translate(-2.26 -3.32)"/><path class="af6ee0f7-d521-4f43-a905-9580894d43f3" d="M27.7,7.77h-.9L25,4.88V7.77h-.9V3.38H25L26.8,6.27V3.38h.9Z" transform="translate(-2.26 -3.32)"/><path class="af6ee0f7-d521-4f43-a905-9580894d43f3" d="M32.5,6.86H30.92l-.3.91h-1l1.63-4.39h.84l1.64,4.39h-1Zm-1.34-.73h1.1l-.55-1.64Z" transform="translate(-2.26 -3.32)"/><path class="af6ee0f7-d521-4f43-a905-9580894d43f3" d="M37.56,6.31a2,2,0,0,1-.15.61,1.42,1.42,0,0,1-.35.48,1.59,1.59,0,0,1-.54.31,2.07,2.07,0,0,1-.73.12A1.79,1.79,0,0,1,35,7.68a1.51,1.51,0,0,1-.57-.42,1.75,1.75,0,0,1-.36-.66A3,3,0,0,1,34,5.72V5.43a2.94,2.94,0,0,1,.13-.87,1.88,1.88,0,0,1,.37-.67,1.69,1.69,0,0,1,.57-.42,1.87,1.87,0,0,1,.76-.15,2,2,0,0,1,.72.12,1.35,1.35,0,0,1,.53.32,1.57,1.57,0,0,1,.35.49,2.09,2.09,0,0,1,.15.62h-.9a1.21,1.21,0,0,0-.07-.35.58.58,0,0,0-.15-.25.68.68,0,0,0-.26-.16,1.32,1.32,0,0,0-.37-.05.78.78,0,0,0-.69.33,1.92,1.92,0,0,0-.22,1v.29a3.45,3.45,0,0,0,.05.6,1.1,1.1,0,0,0,.16.43.65.65,0,0,0,.27.25.88.88,0,0,0,.41.09,1.27,1.27,0,0,0,.37,0,.56.56,0,0,0,.26-.15.6.6,0,0,0,.16-.24,1.14,1.14,0,0,0,.07-.34Z" transform="translate(-2.26 -3.32)"/><path class="af6ee0f7-d521-4f43-a905-9580894d43f3" d="M41.59,6.31a1.57,1.57,0,0,1-.15.61,1.3,1.3,0,0,1-.35.48,1.5,1.5,0,0,1-.54.31,2,2,0,0,1-.72.12,1.84,1.84,0,0,1-.76-.15,1.69,1.69,0,0,1-.57-.42,2.08,2.08,0,0,1-.36-.66A3,3,0,0,1,38,5.72V5.43a2.65,2.65,0,0,1,.13-.87,1.87,1.87,0,0,1,.36-.67,1.63,1.63,0,0,1,.58-.42,1.79,1.79,0,0,1,.75-.15,2,2,0,0,1,.72.12,1.46,1.46,0,0,1,.54.32,1.39,1.39,0,0,1,.34.49,1.83,1.83,0,0,1,.16.62h-.9a1.67,1.67,0,0,0-.07-.35.87.87,0,0,0-.15-.25.76.76,0,0,0-.26-.16,1.35,1.35,0,0,0-.38-.05.76.76,0,0,0-.68.33,1.91,1.91,0,0,0-.23,1v.29a3.45,3.45,0,0,0,0,.6,1.54,1.54,0,0,0,.16.43.62.62,0,0,0,.28.25.86.86,0,0,0,.41.09,1.38,1.38,0,0,0,.37,0,.61.61,0,0,0,.26-.15.6.6,0,0,0,.16-.24,1.14,1.14,0,0,0,.07-.34Z" transform="translate(-2.26 -3.32)"/><path class="af6ee0f7-d521-4f43-a905-9580894d43f3" d="M45.79,5.67a2.74,2.74,0,0,1-.14.9,1.8,1.8,0,0,1-.38.68,1.58,1.58,0,0,1-.59.43,2,2,0,0,1-1.51,0,1.58,1.58,0,0,1-.59-.43,1.81,1.81,0,0,1-.39-.68,2.74,2.74,0,0,1-.14-.9V5.48a2.83,2.83,0,0,1,.14-.9,2,2,0,0,1,.38-.68,1.76,1.76,0,0,1,.59-.43,1.91,1.91,0,0,1,.76-.15,1.87,1.87,0,0,1,.76.15,1.66,1.66,0,0,1,.59.43,2,2,0,0,1,.38.68,2.83,2.83,0,0,1,.14.9Zm-.92-.2a1.86,1.86,0,0,0-.24-1,.81.81,0,0,0-.71-.36.8.8,0,0,0-.7.36,1.78,1.78,0,0,0-.25,1v.2a2.8,2.8,0,0,0,.06.61,1.49,1.49,0,0,0,.19.44.84.84,0,0,0,.71.37.78.78,0,0,0,.7-.37,1.9,1.9,0,0,0,.24-1Z" transform="translate(-2.26 -3.32)"/><path class="af6ee0f7-d521-4f43-a905-9580894d43f3" d="M49.76,3.38v2.9a1.78,1.78,0,0,1-.12.67,1.42,1.42,0,0,1-.35.48,1.62,1.62,0,0,1-.53.3,2.43,2.43,0,0,1-.68.1,2.35,2.35,0,0,1-.67-.1,1.44,1.44,0,0,1-.53-.3A1.3,1.3,0,0,1,46.53,7a1.6,1.6,0,0,1-.13-.67V3.38h.91v2.9a.81.81,0,0,0,.2.62.81.81,0,0,0,.57.2.77.77,0,0,0,.57-.2.82.82,0,0,0,.21-.62V3.38Z" transform="translate(-2.26 -3.32)"/><path class="af6ee0f7-d521-4f43-a905-9580894d43f3" d="M54.07,7.77h-.9L51.41,4.88V7.77H50.5V3.38h.91l1.76,2.89V3.38h.9Z" transform="translate(-2.26 -3.32)"/><path class="af6ee0f7-d521-4f43-a905-9580894d43f3" d="M58.07,4.11H56.73V7.77h-.91V4.11H54.5V3.38h3.57Z" transform="translate(-2.26 -3.32)"/><path class="af6ee0f7-d521-4f43-a905-9580894d43f3" d="M60.9,7.77H60V3.38h.9Z" transform="translate(-2.26 -3.32)"/><path class="af6ee0f7-d521-4f43-a905-9580894d43f3" d="M65.31,7.77H64.4L62.64,4.88V7.77h-.9V3.38h.9l1.77,2.89V3.38h.9Z" transform="translate(-2.26 -3.32)"/><path class="af6ee0f7-d521-4f43-a905-9580894d43f3" d="M8.45,23.05H11a3.57,3.57,0,0,0,2.68-.9,3.31,3.31,0,0,0,.87-2.4,3.76,3.76,0,0,0-.2-1.22,2.48,2.48,0,0,0-.6-1,2.64,2.64,0,0,0-1-.63,4.08,4.08,0,0,0-1.43-.23,3.82,3.82,0,0,0-1.23.19,3.09,3.09,0,0,0-1,.53,2.49,2.49,0,0,0-.69.85,2.43,2.43,0,0,0-.26,1.12H3.35A5.81,5.81,0,0,1,4,16.71a6.2,6.2,0,0,1,1.68-2.06,7.77,7.77,0,0,1,2.49-1.31,9.79,9.79,0,0,1,3-.47,11.69,11.69,0,0,1,3.29.44A7.28,7.28,0,0,1,17,14.61a5.78,5.78,0,0,1,1.65,2.13,6.85,6.85,0,0,1,.6,3A5.09,5.09,0,0,1,19,21.22a5.4,5.4,0,0,1-.71,1.42,6.56,6.56,0,0,1-1.14,1.23,7.17,7.17,0,0,1-1.54,1,5.57,5.57,0,0,1,4,5.58,6.57,6.57,0,0,1-.65,3,6.29,6.29,0,0,1-1.78,2.21A7.88,7.88,0,0,1,14.54,37a11.71,11.71,0,0,1-3.36.47,11.18,11.18,0,0,1-3-.41,7.78,7.78,0,0,1-2.6-1.27,6.45,6.45,0,0,1-1.84-2.14,6.29,6.29,0,0,1-.7-3.06H7.8a2.77,2.77,0,0,0,.26,1.23,3,3,0,0,0,.73,1,3.35,3.35,0,0,0,1.11.63,3.94,3.94,0,0,0,1.39.23,4.54,4.54,0,0,0,1.52-.23A3.14,3.14,0,0,0,14,32.72a2.88,2.88,0,0,0,.71-1,3.35,3.35,0,0,0,.25-1.33,4.47,4.47,0,0,0-.27-1.64,2.79,2.79,0,0,0-.78-1.11A3.46,3.46,0,0,0,12.62,27,6,6,0,0,0,11,26.76H8.45Z" transform="translate(-2.26 -3.32)"/><path class="af6ee0f7-d521-4f43-a905-9580894d43f3" d="M28.43,22.15a1.54,1.54,0,0,0-.11-.55,1.48,1.48,0,0,0-.38-.55,2.63,2.63,0,0,0-.75-.49,5.45,5.45,0,0,0-1.22-.4,8.39,8.39,0,0,1-1.19-.32,3.29,3.29,0,0,1-.86-.43,1.64,1.64,0,0,1-.51-.61,1.87,1.87,0,0,1-.17-.85,1.76,1.76,0,0,1,.18-.79,2.09,2.09,0,0,1,.54-.65,2.56,2.56,0,0,1,.84-.43,3.65,3.65,0,0,1,1.14-.16,4.12,4.12,0,0,1,1.21.16,2.75,2.75,0,0,1,.9.47,2,2,0,0,1,.57.73,2.23,2.23,0,0,1,.2.94h-.41a1.64,1.64,0,0,0-.16-.72,1.72,1.72,0,0,0-.48-.6,2.43,2.43,0,0,0-.78-.43,3.37,3.37,0,0,0-1-.15,3.56,3.56,0,0,0-1.05.14,2.26,2.26,0,0,0-.71.38,1.46,1.46,0,0,0-.41.53,1.31,1.31,0,0,0-.13.57,1.75,1.75,0,0,0,.09.57,1.07,1.07,0,0,0,.35.5,2.63,2.63,0,0,0,.74.42,7.44,7.44,0,0,0,1.26.38,8.17,8.17,0,0,1,1.25.38,3.39,3.39,0,0,1,.85.48,1.78,1.78,0,0,1,.49.65,2,2,0,0,1,.16.84,1.87,1.87,0,0,1-.77,1.53,2.73,2.73,0,0,1-.89.43,3.92,3.92,0,0,1-1.18.16,4.28,4.28,0,0,1-1.29-.18,2.76,2.76,0,0,1-.94-.47,2.17,2.17,0,0,1-.59-.7,1.92,1.92,0,0,1-.19-.85h.4a1.58,1.58,0,0,0,.29.87,1.89,1.89,0,0,0,.61.55,2.75,2.75,0,0,0,.82.29,4.63,4.63,0,0,0,.89.09,3.43,3.43,0,0,0,1.06-.15,2.38,2.38,0,0,0,.76-.4,1.83,1.83,0,0,0,.46-.55A1.47,1.47,0,0,0,28.43,22.15Z" transform="translate(-2.26 -3.32)"/><path class="af6ee0f7-d521-4f43-a905-9580894d43f3" d="M30.94,13.55a.41.41,0,0,1,.12-.3.38.38,0,0,1,.29-.12.4.4,0,0,1,.29.12.41.41,0,0,1,.12.3.41.41,0,0,1-.41.41.38.38,0,0,1-.29-.12A.4.4,0,0,1,30.94,13.55Zm.61,10.58h-.4V16.06h.4Z" transform="translate(-2.26 -3.32)"/><path class="af6ee0f7-d521-4f43-a905-9580894d43f3" d="M40,24.13h-.4V18.76a3.64,3.64,0,0,0-.16-1.19,2,2,0,0,0-.46-.76,1.79,1.79,0,0,0-.7-.39,3.56,3.56,0,0,0-.89-.11,2.36,2.36,0,0,0-1.17.28,2.82,2.82,0,0,0-.84.69,3.37,3.37,0,0,0-.54.88,4.13,4.13,0,0,0-.28.87v5.1h-.41V16.06h.41V18a4.28,4.28,0,0,1,.45-.81,3.28,3.28,0,0,1,.64-.65,2.86,2.86,0,0,1,.81-.43,2.69,2.69,0,0,1,1-.16,2.8,2.8,0,0,1,1.65.44,2.21,2.21,0,0,1,.85,1.46,3.59,3.59,0,0,1,.44-.75,3.14,3.14,0,0,1,.66-.6,3.52,3.52,0,0,1,.85-.41,3.7,3.7,0,0,1,1-.14,3.38,3.38,0,0,1,1.09.16,1.94,1.94,0,0,1,.81.53,2.44,2.44,0,0,1,.51.93,5,5,0,0,1,.17,1.37v5.22H45V18.91a4.14,4.14,0,0,0-.16-1.27,1.88,1.88,0,0,0-.46-.8,1.63,1.63,0,0,0-.7-.42,3.15,3.15,0,0,0-.89-.11,3.3,3.3,0,0,0-.86.13,3.07,3.07,0,0,0-.71.32,2.73,2.73,0,0,0-.54.46,2.67,2.67,0,0,0-.39.53,2.8,2.8,0,0,0-.25.53,2,2,0,0,0-.11.48Z" transform="translate(-2.26 -3.32)"/><path class="af6ee0f7-d521-4f43-a905-9580894d43f3" d="M54,20.17a6.67,6.67,0,0,1-.2,1.68,4,4,0,0,1-.6,1.3,2.52,2.52,0,0,1-1,.83,2.65,2.65,0,0,1-1.27.3,3.8,3.8,0,0,1-.92-.11,3.12,3.12,0,0,1-1.38-.73,2.64,2.64,0,0,1-.45-.56v4.35h-.41V16.06h.41V17.5a3.32,3.32,0,0,1,.46-.65,2.63,2.63,0,0,1,.61-.49A3.07,3.07,0,0,1,50.1,16a3.17,3.17,0,0,1,.9-.11,2.77,2.77,0,0,1,1.28.28,2.67,2.67,0,0,1,1,.81,3.85,3.85,0,0,1,.6,1.29A6.92,6.92,0,0,1,54,20ZM53.63,20a6.28,6.28,0,0,0-.16-1.48A3.64,3.64,0,0,0,53,17.36a2.23,2.23,0,0,0-2-1,3.07,3.07,0,0,0-1.11.18,2.92,2.92,0,0,0-.79.48,3,3,0,0,0-.53.66,3.93,3.93,0,0,0-.31.71v3.77a2.49,2.49,0,0,0,.38.7,2.42,2.42,0,0,0,.59.56,2.62,2.62,0,0,0,.79.37,3.77,3.77,0,0,0,1,.13,2.36,2.36,0,0,0,1.15-.28,2.32,2.32,0,0,0,.82-.77,3.61,3.61,0,0,0,.48-1.18,6.22,6.22,0,0,0,.16-1.48Z" transform="translate(-2.26 -3.32)"/><path class="af6ee0f7-d521-4f43-a905-9580894d43f3" d="M56.73,24.13h-.4V12.68h.4Z" transform="translate(-2.26 -3.32)"/><path class="af6ee0f7-d521-4f43-a905-9580894d43f3" d="M62.28,24.28A3.23,3.23,0,0,1,60.9,24a3.52,3.52,0,0,1-1.12-.83A4.13,4.13,0,0,1,59,21.88a4.65,4.65,0,0,1-.27-1.61v-.33A4.91,4.91,0,0,1,59,18.32,4.2,4.2,0,0,1,59.74,17a3.43,3.43,0,0,1,1.07-.83,3,3,0,0,1,1.32-.29,2.91,2.91,0,0,1,1.23.25,2.71,2.71,0,0,1,1,.7A3.45,3.45,0,0,1,65,18a4.15,4.15,0,0,1,.22,1.4v.47h-6v.44a4.09,4.09,0,0,0,.24,1.41,3.72,3.72,0,0,0,.66,1.15,3.23,3.23,0,0,0,1,.77,2.75,2.75,0,0,0,1.24.28,3.71,3.71,0,0,0,.67-.05,2.31,2.31,0,0,0,.62-.18,2.39,2.39,0,0,0,.57-.34,2.72,2.72,0,0,0,.53-.54L65,23a2.58,2.58,0,0,1-.46.53,2.49,2.49,0,0,1-.59.41,2.89,2.89,0,0,1-.73.27A3.57,3.57,0,0,1,62.28,24.28Zm-.15-8a2.59,2.59,0,0,0-1.12.24,2.91,2.91,0,0,0-.9.66,3.43,3.43,0,0,0-.63,1,4.44,4.44,0,0,0-.31,1.23h5.62v-.1a3.38,3.38,0,0,0-.19-1.15,3,3,0,0,0-.54-1,2.53,2.53,0,0,0-.83-.66A2.5,2.5,0,0,0,62.13,16.32Z" transform="translate(-2.26 -3.32)"/><path class="af6ee0f7-d521-4f43-a905-9580894d43f3" d="M28.43,35.14A1.52,1.52,0,0,0,27.94,34a2.63,2.63,0,0,0-.75-.49A6.06,6.06,0,0,0,26,33.15a9.87,9.87,0,0,1-1.19-.33,3,3,0,0,1-.86-.43,1.64,1.64,0,0,1-.51-.61,1.87,1.87,0,0,1-.17-.85,1.76,1.76,0,0,1,.18-.79,2.09,2.09,0,0,1,.54-.65,2.56,2.56,0,0,1,.84-.43,3.65,3.65,0,0,1,1.14-.16,4.12,4.12,0,0,1,1.21.16,3,3,0,0,1,.9.47,2.1,2.1,0,0,1,.57.73,2.23,2.23,0,0,1,.2.94h-.41a1.64,1.64,0,0,0-.16-.72,1.82,1.82,0,0,0-.48-.6,2.24,2.24,0,0,0-.78-.42,3.09,3.09,0,0,0-1-.16,3.56,3.56,0,0,0-1.05.14,2.26,2.26,0,0,0-.71.38,1.55,1.55,0,0,0-.41.53,1.31,1.31,0,0,0-.13.57,1.7,1.7,0,0,0,.09.57,1,1,0,0,0,.35.5,2.89,2.89,0,0,0,.74.43,8.49,8.49,0,0,0,1.26.38,7.23,7.23,0,0,1,1.25.37,3.12,3.12,0,0,1,.85.49,1.67,1.67,0,0,1,.49.64,2,2,0,0,1,.16.84,1.88,1.88,0,0,1-.2.86,1.91,1.91,0,0,1-.57.67,2.73,2.73,0,0,1-.89.43,3.92,3.92,0,0,1-1.18.16,4.28,4.28,0,0,1-1.29-.18,2.76,2.76,0,0,1-.94-.47,2.17,2.17,0,0,1-.59-.7,1.92,1.92,0,0,1-.19-.85h.4a1.58,1.58,0,0,0,.29.87,1.89,1.89,0,0,0,.61.55,2.75,2.75,0,0,0,.82.29,4.63,4.63,0,0,0,.89.09,3.43,3.43,0,0,0,1.06-.15,2.38,2.38,0,0,0,.76-.4,1.83,1.83,0,0,0,.46-.55A1.46,1.46,0,0,0,28.43,35.14Z" transform="translate(-2.26 -3.32)"/><path class="af6ee0f7-d521-4f43-a905-9580894d43f3" d="M32,26.87v2.18h1.83v.41H32v5.72a2.94,2.94,0,0,0,.1.86,1.22,1.22,0,0,0,.26.51.8.8,0,0,0,.39.24,1.43,1.43,0,0,0,.46.07l.41,0,.39-.05.07.38-.19,0-.23,0-.24,0h-.18a2.19,2.19,0,0,1-.7-.1,1.08,1.08,0,0,1-.51-.33,1.61,1.61,0,0,1-.33-.64,4.1,4.1,0,0,1-.11-1V29.46H30.05v-.41h1.49V26.87Z" transform="translate(-2.26 -3.32)"/><path class="af6ee0f7-d521-4f43-a905-9580894d43f3" d="M38.78,37.26A3.23,3.23,0,0,1,37.4,37a3.37,3.37,0,0,1-1.12-.83,3.84,3.84,0,0,1-.76-1.27,4.61,4.61,0,0,1-.28-1.61v-.33a4.75,4.75,0,0,1,.27-1.62A4,4,0,0,1,36.24,30a3.32,3.32,0,0,1,1.07-.84,3.1,3.1,0,0,1,1.32-.29,2.91,2.91,0,0,1,1.23.25,2.71,2.71,0,0,1,1,.7,3.25,3.25,0,0,1,.63,1.09,3.92,3.92,0,0,1,.23,1.4v.47h-6v.44a4.09,4.09,0,0,0,.24,1.41,3.36,3.36,0,0,0,.66,1.15,3.08,3.08,0,0,0,1,.77,2.75,2.75,0,0,0,1.24.28,3.71,3.71,0,0,0,.67,0,2.31,2.31,0,0,0,.62-.18,2.1,2.1,0,0,0,.57-.34,3,3,0,0,0,.53-.54l.28.21a2.52,2.52,0,0,1-.46.52,2.49,2.49,0,0,1-.59.41,2.83,2.83,0,0,1-.74.27A3.43,3.43,0,0,1,38.78,37.26Zm-.15-8a2.59,2.59,0,0,0-1.12.24,2.91,2.91,0,0,0-.9.66,3.43,3.43,0,0,0-.63,1,4.12,4.12,0,0,0-.31,1.23h5.62v-.1a3.38,3.38,0,0,0-.19-1.15,3,3,0,0,0-.54-1,2.47,2.47,0,0,0-.84-.66A2.42,2.42,0,0,0,38.63,29.3Z" transform="translate(-2.26 -3.32)"/><path class="af6ee0f7-d521-4f43-a905-9580894d43f3" d="M49.74,33.15a6.23,6.23,0,0,1-.21,1.68,4,4,0,0,1-.59,1.3,2.6,2.6,0,0,1-2.23,1.13,4.3,4.3,0,0,1-.91-.1,2.94,2.94,0,0,1-.77-.3,2.87,2.87,0,0,1-1.07-1v4.35h-.4V29.05H44v1.43a3.25,3.25,0,0,1,.46-.64,2.67,2.67,0,0,1,.61-.5,3.07,3.07,0,0,1,.76-.33,3.64,3.64,0,0,1,.9-.11,2.84,2.84,0,0,1,1.29.28,2.73,2.73,0,0,1,1,.81,4,4,0,0,1,.6,1.29A6.48,6.48,0,0,1,49.74,33ZM49.32,33a6.36,6.36,0,0,0-.16-1.49,3.43,3.43,0,0,0-.48-1.17,2.29,2.29,0,0,0-2-1,2.9,2.9,0,0,0-1.11.19,2.52,2.52,0,0,0-1.31,1.13,3.39,3.39,0,0,0-.32.71v3.78a2.8,2.8,0,0,0,.38.7,2.38,2.38,0,0,0,.59.55,2.74,2.74,0,0,0,.79.37,3.85,3.85,0,0,0,1,.13,2.26,2.26,0,0,0,2-1,3.43,3.43,0,0,0,.48-1.17,6.36,6.36,0,0,0,.16-1.49Z" transform="translate(-2.26 -3.32)"/><path class="af6ee0f7-d521-4f43-a905-9580894d43f3" d="M56.9,35.14a1.55,1.55,0,0,0-.11-.56,1.44,1.44,0,0,0-.38-.55,2.63,2.63,0,0,0-.75-.49,6.06,6.06,0,0,0-1.22-.39,10.42,10.42,0,0,1-1.19-.33,2.82,2.82,0,0,1-.85-.43,1.67,1.67,0,0,1-.52-.61,2,2,0,0,1-.17-.85,1.65,1.65,0,0,1,.19-.79,1.93,1.93,0,0,1,.53-.65,2.56,2.56,0,0,1,.84-.43,3.7,3.7,0,0,1,1.14-.16,4.12,4.12,0,0,1,1.21.16,2.84,2.84,0,0,1,.9.47,2.1,2.1,0,0,1,.77,1.67h-.41a1.64,1.64,0,0,0-.16-.72,1.82,1.82,0,0,0-.48-.6,2.28,2.28,0,0,0-.77-.42,3.19,3.19,0,0,0-1.06-.16,3.56,3.56,0,0,0-1,.14,2.26,2.26,0,0,0-.71.38,1.55,1.55,0,0,0-.41.53,1.47,1.47,0,0,0-.13.57,1.7,1.7,0,0,0,.09.57,1,1,0,0,0,.35.5,2.89,2.89,0,0,0,.74.43,8.3,8.3,0,0,0,1.27.38,7.38,7.38,0,0,1,1.24.37,3.12,3.12,0,0,1,.85.49,1.67,1.67,0,0,1,.49.64,2,2,0,0,1,.16.84,1.88,1.88,0,0,1-.2.86,1.91,1.91,0,0,1-.57.67,2.73,2.73,0,0,1-.89.43,3.9,3.9,0,0,1-1.17.16,4.3,4.3,0,0,1-1.3-.18,2.76,2.76,0,0,1-.94-.47,2,2,0,0,1-.58-.7,1.8,1.8,0,0,1-.2-.85h.4a1.67,1.67,0,0,0,.29.87,1.83,1.83,0,0,0,.62.55,2.66,2.66,0,0,0,.82.29,4.48,4.48,0,0,0,.89.09,3.41,3.41,0,0,0,1.05-.15,2.38,2.38,0,0,0,.76-.4,1.69,1.69,0,0,0,.46-.55A1.46,1.46,0,0,0,56.9,35.14Z" transform="translate(-2.26 -3.32)"/></svg>