<svg id="b0ca2e5e-b07b-42b2-81ef-73ba9c9f1542" data-name="Layer 1" xmlns="http://www.w3.org/2000/svg" viewBox="0 0 100 100"><defs><style>.f92f3471-12aa-40c3-9d0f-7b0337e02088{fill:#642fcf;}.a3efc820-d294-4d63-b8dc-6cd619ac8f49{fill:#f4b71e;}</style></defs><title>LEFAStoreIcons</title><path class="f92f3471-12aa-40c3-9d0f-7b0337e02088" d="M91,14.11H9a6,6,0,0,0-6,6V69.27a6,6,0,0,0,6,6H48.54V83H35.66a1.46,1.46,0,0,0-1.47,1.46h0a1.47,1.47,0,0,0,1.47,1.46H64.34a1.47,1.47,0,0,0,1.47-1.46h0A1.46,1.46,0,0,0,64.34,83H51.46V75.28H91a6,6,0,0,0,6-6V20.12A6,6,0,0,0,91,14.11Zm3.09,55.16A3.09,3.09,0,0,1,91,72.36H9a3.09,3.09,0,0,1-3.09-3.09V20.12A3.09,3.09,0,0,1,9,17H91a3.09,3.09,0,0,1,3.09,3.09Z"/><circle class="a3efc820-d294-4d63-b8dc-6cd619ac8f49" cx="13.8" cy="65.52" r="2.31"/><circle class="a3efc820-d294-4d63-b8dc-6cd619ac8f49" cx="23.03" cy="65.52" r="2.31"/></svg>