<svg id="b8ab44bc-eadb-4838-96f1-5de4725635e2" data-name="Layer 1" xmlns="http://www.w3.org/2000/svg" viewBox="0 0 100 100"><defs><style>.f93804ae-1838-4baa-98db-ecbce0c00356{fill:#fff;}.b4e542d9-d986-470b-819f-7b44de2a4507{fill:#f4b71e;}</style></defs><title>LEFAWalletIcons</title><path class="f93804ae-1838-4baa-98db-ecbce0c00356" d="M87.53,17.44H12.47A6.52,6.52,0,0,0,6,24V76a6.52,6.52,0,0,0,6.52,6.52H87.53A6.52,6.52,0,0,0,94.05,76V24A6.52,6.52,0,0,0,87.53,17.44ZM9,24a3.53,3.53,0,0,1,3.52-3.52H87.53A3.53,3.53,0,0,1,91.05,24V31.7H9ZM91.05,76a3.53,3.53,0,0,1-3.52,3.52H12.47A3.53,3.53,0,0,1,9,76V42.26h82.1Z"/><rect class="b4e542d9-d986-470b-819f-7b44de2a4507" x="15.28" y="61.35" width="8.68" height="3"/><rect class="b4e542d9-d986-470b-819f-7b44de2a4507" x="15.28" y="67.82" width="32.09" height="3"/><rect class="b4e542d9-d986-470b-819f-7b44de2a4507" x="26.77" y="61.35" width="8.68" height="3"/><rect class="b4e542d9-d986-470b-819f-7b44de2a4507" x="38.17" y="61.35" width="43.6" height="3"/></svg>