<svg height="480pt" viewBox="0 0 480 480.38564" width="480pt" xmlns="http://www.w3.org/2000/svg"><path d="m472.191406 288.386719v64h-112c-8.824218-.027344-15.972656-7.175781-16-16v-32c0-8.835938 7.164063-16 16-16zm0 0" fill="#d8d7da"/><path d="m472.191406 184.386719v48h-232c43.261719-.011719 82.652344-24.921875 101.203125-64h114.796875c8.828125.023437 15.976563 7.171875 16 16zm0 0" fill="#898890"/><path d="m240.191406 232.386719h232v56h-112c-8.835937 0-16 7.164062-16 16v32c.027344 8.824219 7.175782 15.972656 16 16h112v104c-.023437 8.824219-7.171875 15.972656-16 16h-432c-8.824218-.027344-15.972656-7.175781-16-16v-272c.027344-8.828125 7.175782-15.976563 16-16h114.800782c18.550781 39.078125 57.941406 63.988281 101.199218 64zm0 0" fill="#898890"/><g fill="#ffda44"><path d="m240.191406 184.386719c17.675782 0 32-14.328125 32-32 0-17.675781-14.324218-32-32-32v-64c-17.671875 0-32 14.324219-32 32 0 17.671875 14.328125 32 32 32zm112-64c0 61.855469-50.144531 112-112 112-61.855468 0-112-50.144531-112-112s50.144532-112 112-112c29.777344-.242188 58.40625 11.480469 79.464844 32.535156 21.054688 21.058594 32.777344 49.6875 32.535156 79.464844zm0 0"/><path d="m240.191406 120.386719c17.675782 0 32 14.324219 32 32 0 17.671875-14.324218 32-32 32zm0 0"/><path d="m240.191406 56.386719v64c-17.671875 0-32-14.328125-32-32 0-17.675781 14.328125-32 32-32zm0 0"/></g><path d="m456.191406 160.386719h-103c17.785156-49.765625.925782-105.304688-41.527344-136.78125-42.449218-31.472657-100.492187-31.472657-142.945312 0-42.449219 31.476562-59.3125 87.015625-41.527344 136.78125h-103c-13.253906 0-24 10.742187-24 24v272c0 13.253906 10.746094 24 24 24h432c13.257813 0 24-10.746094 24-24v-272c0-13.257813-10.742187-24-24-24zm0 16c4.417969 0 8 3.582031 8 8v40h-164.390625c19.683594-11.316407 35.78125-27.953125 46.441407-48zm-216-160c57.4375 0 104 46.5625 104 104s-46.5625 104-104 104-104-46.5625-104-104c.066406-57.410157 46.589844-103.933594 104-104zm216 448h-432c-4.417968 0-8-3.582031-8-8v-272c0-4.417969 3.582032-8 8-8h109.953125c10.660157 20.046875 26.753907 36.683593 46.441407 48h-108.394532v16h392v40h-104c-13.253906 0-24 10.742187-24 24v32c0 13.253906 10.746094 24 24 24h104v96c0 4.417969-3.582031 8-8 8zm8-168v48h-104c-4.417968 0-8-3.582031-8-8v-32c0-4.417969 3.582032-8 8-8zm0 0"/><path d="m368.191406 312.386719h16v16h-16zm0 0"/><path d="m216.191406 152.386719h-16c.027344 19 13.390625 35.371093 32 39.199219v16.800781h16v-16.800781c18.644532-3.785157 32.042969-20.175782 32.042969-39.199219 0-19.023438-13.398437-35.414063-32.042969-39.199219v-47.328125c9.554688 3.375 15.960938 12.390625 16 22.527344h16c-.023437-19-13.386718-35.375-32-39.199219v-16.800781h-16v16.800781c-18.640625 3.785156-32.039062 20.175781-32.039062 39.199219 0 19.023437 13.398437 35.414062 32.039062 39.199219v47.335937c-9.554687-3.378906-15.960937-12.398437-16-22.535156zm48 0c-.039062 10.132812-6.445312 19.148437-16 22.527343v-45.054687c9.554688 3.375 15.960938 12.390625 16 22.527344zm-48-64c.042969-10.136719 6.445313-19.152344 16-22.527344v45.054687c-9.554687-3.378906-15.957031-12.394531-16-22.527343zm0 0"/><path d="m.191406 16.386719h16v16h-16zm0 0"/><path d="m16.191406.386719h16v16h-16zm0 0"/><path d="m16.191406 32.386719h16v16h-16zm0 0"/><path d="m32.191406 16.386719h16v16h-16zm0 0"/><path d="m48.191406 80.386719h16v16h-16zm0 0"/><path d="m64.191406 64.386719h16v16h-16zm0 0"/><path d="m64.191406 96.386719h16v16h-16zm0 0"/><path d="m80.191406 80.386719h16v16h-16zm0 0"/><path d="m464.191406 16.386719h16v16h-16zm0 0"/><path d="m448.191406.386719h16v16h-16zm0 0"/><path d="m448.191406 32.386719h16v16h-16zm0 0"/><path d="m432.191406 16.386719h16v16h-16zm0 0"/><path d="m416.191406 80.386719h16v16h-16zm0 0"/><path d="m400.191406 64.386719h16v16h-16zm0 0"/><path d="m400.191406 96.386719h16v16h-16zm0 0"/><path d="m384.191406 80.386719h16v16h-16zm0 0"/></svg>