<svg id="aa778fcb-907b-40e2-8e87-6240bd06c109" data-name="Layer 1" xmlns="http://www.w3.org/2000/svg" viewBox="0 0 100 100">
  <defs>
    <style>
      .bf388d1c-4ca9-4bc5-8d04-9719fcff95c8 {
        fill: #642fcf;
      }
    </style>
  </defs>
  <title>LEFAStoreIcons</title>
  <path class="bf388d1c-4ca9-4bc5-8d04-9719fcff95c8" d="M21.84,94.69a3.74,3.74,0,0,1-1.55-.34,4.29,4.29,0,0,1-2.45-4V14.28c0-4.95,3.68-9,8.21-9H74c4.53,0,8.21,4,8.21,9v74.6a4.31,4.31,0,0,1-2.45,4,3.67,3.67,0,0,1-4.33-1l-24.71-27-26,28.48A3.76,3.76,0,0,1,21.84,94.69ZM26.05,8.22a5.83,5.83,0,0,0-5.55,6.06V90.34a1.39,1.39,0,0,0,.81,1.32,1.2,1.2,0,0,0,1.43-.31L50.67,60.81,77.26,89.9a1.23,1.23,0,0,0,1.43.31,1.41,1.41,0,0,0,.81-1.33V14.28A5.83,5.83,0,0,0,74,8.22Z"/>
</svg>
